<?xml version="1.0" encoding="UTF-8"?>
<svg width="24px" height="24px" viewBox="0 0 24 24" version="1.1" xmlns="http://www.w3.org/2000/svg" xmlns:xlink="http://www.w3.org/1999/xlink">
    <title>15F387E0-CFA5-46D3-8A9C-FFD0E14774AA</title>
    <defs>
        <path d="M1.26848545,0.292893219 C1.62646605,-0.0976310729 2.20686728,-0.0976310729 2.56484788,0.292893219 L2.56484788,0.292893219 L6.48654581,4.57063439 C8.17627534,3.56277194 10.0155866,3 12,3 C15.3798024,3 18.3386923,4.63249094 20.8545372,7.31605887 C21.7188737,8.23801779 22.4694995,9.22244509 23.1056644,10.2074746 C23.4900327,10.8026256 23.7538591,11.2716502 23.8944272,11.5527864 C24.0351909,11.8343139 24.0351909,12.1656861 23.8944272,12.4472136 C23.7538591,12.7283498 23.4900327,13.1973744 23.1056644,13.7925254 C22.4694995,14.7775549 21.7188737,15.7619822 20.8545372,16.6839411 C20.2898691,17.2862538 19.7028824,17.835618 19.0938274,18.3254599 L22.7315145,22.2928932 C23.0894952,22.6834175 23.0894952,23.3165825 22.7315145,23.7071068 C22.3735339,24.0976311 21.7931327,24.0976311 21.4351521,23.7071068 L21.4351521,23.7071068 L17.5134542,19.4293656 C15.8237247,20.4372281 13.9844134,21 12,21 C8.62019756,21 5.66130774,19.3675091 3.1454628,16.6839411 C2.28112631,15.7619822 1.5305005,14.7775549 0.894335622,13.7925254 C0.50996726,13.1973744 0.246140906,12.7283498 0.105572809,12.4472136 C-0.0351909363,12.1656861 -0.0351909363,11.8343139 0.105572809,11.5527864 C0.246140906,11.2716502 0.50996726,10.8026256 0.894335622,10.2074746 C1.26650316,9.63121516 1.67784442,9.05516185 2.12820919,8.49170145 C2.16586674,8.42013237 2.21285333,8.3535828 2.26848545,8.29289322 C2.29987167,8.2586537 2.33296765,8.22741616 2.36747358,8.1991806 C2.61512979,7.89977783 2.87471767,7.60485367 3.1454628,7.31605887 C3.7101309,6.71374622 4.29711758,6.16438204 4.90617261,5.67454006 L1.26848545,1.70710678 C0.91050485,1.31658249 0.91050485,0.683417511 1.26848545,0.292893219 Z M2.57441438,11.2925254 C2.41127724,11.5451249 2.26658862,11.7823697 2.14071218,12 C2.26658862,12.2176303 2.41127724,12.4548751 2.57441438,12.7074746 C3.149187,13.5974451 3.82824869,14.4880178 4.6045372,15.3160589 C6.46866768,17.3044647 8.55897379,18.5936698 10.8499232,18.9189209 L3.0671632,10.5664228 C2.89527115,10.8076511 2.73097396,11.0501106 2.57441438,11.2925254 Z M12,16 C11.4536163,16 10.9328194,15.8904503 10.4583756,15.6921174 L13.2684855,18.7071068 C13.31713,18.7601735 13.3591644,18.8177206 13.3945887,18.8785304 C14.339124,18.7172417 15.2502325,18.3890463 16.1247186,17.9150641 L13.9204448,15.5096857 C13.3504228,15.822256 12.6959686,16 12,16 Z M12,5 C10.5485846,5 9.17168973,5.38226669 7.87528143,6.08493591 L10.0795552,8.49031425 C10.6495772,8.17774405 11.3040314,8 12,8 C14.209139,8 16,9.790861 16,12 C16,12.8202765 15.7530913,13.5828844 15.3295408,14.2175569 L17.738782,16.8461932 C18.3091604,16.397644 18.8615872,15.8855262 19.3954628,15.3160589 C20.1717513,14.4880178 20.850813,13.5974451 21.4255856,12.7074746 C21.5887228,12.4548751 21.7334114,12.2176303 21.8592878,12 C21.7334114,11.7823697 21.5887228,11.5451249 21.4255856,11.2925254 C20.850813,10.4025549 20.1717513,9.51198221 19.3954628,8.68394113 C17.2238077,6.36750906 14.7451976,5 12,5 Z M10,12 C10,13.1045695 10.8954305,14 12,14 C12.1665162,14 12.3282795,13.9796503 12.4829385,13.941302 L10.1077148,11.35082 C10.0378967,11.5543785 10,11.7727636 10,12 Z M4.6045372,8.68394113 L4.271,9.05 L8.20839722,13.2776715 C8.07325052,12.8764591 8,12.4467838 8,12 C8,11.1797235 8.24690868,10.4171156 8.67045921,9.78244309 L6.26121798,7.15380682 C5.69083964,7.60235601 5.1384128,8.11447383 4.6045372,8.68394113 Z M12,10 C11.8334838,10 11.6717205,10.0203497 11.5170615,10.058698 L13.8922852,12.64918 C13.9621033,12.4456215 14,12.2272364 14,12 C14,10.8954305 13.1045695,10 12,10 Z" id="path-1"></path>
    </defs>
    <g id="Artboards" stroke="none" stroke-width="1" fill="none" fill-rule="evenodd">
        <g id="ASSETS" transform="translate(-201.000000, -521.000000)">
            <g id="ICONES-FONCTIONNELLES" transform="translate(201.000000, 428.000000)">
                <g id="02.Icons/Functionnal/Accessibility" transform="translate(0.000000, 93.000000)">
                    <mask id="mask-2" fill="white">
                        <use xlink:href="#path-1"></use>
                    </mask>
                    <use id="Combined-Shape" fill="#343852" xlink:href="#path-1"></use>
                </g>
            </g>
        </g>
    </g>
</svg>