<?xml version="1.0" encoding="UTF-8"?>
<svg width="106px" height="134px" viewBox="0 0 106 134" version="1.1" xmlns="http://www.w3.org/2000/svg" xmlns:xlink="http://www.w3.org/1999/xlink">
    <title>7A315F10-BB72-47F7-BBE4-818AD88CFAD3</title>
    <g id="Artboards" stroke="none" stroke-width="1" fill="none" fill-rule="evenodd">
        <g id="ASSETS" transform="translate(-208.000000, -1064.000000)">
            <g id="HABILLAGE-FORMULAIRE" transform="translate(201.000000, 971.000000)">
                <g transform="translate(7.000000, 93.000000)">
                    <path d="M40.5012476,134 L40.4987524,134 C18.1315538,134 0,115.812566 0,93.3764328 L0,47.5292813 L0,46 C3.16644076,49.5366194 9.52427454,52.5476265 22.4308268,52.7516141 L40.5012476,52.7516141 C62.8684462,52.7516141 81,70.9390483 81,93.3764328 C81,115.812566 62.8684462,134 40.5012476,134" id="Fill-12" fill="#1D71B8"></path>
                    <path d="M85.0006469,46 L84.9993531,46 C73.4015464,46 64,36.4929321 64,24.7649535 L64,0.799397025 L64,0 C65.6418582,1.84868739 68.9385127,3.42262294 75.6307991,3.52925282 L85.0006469,3.52925282 C96.5984536,3.52925282 106,13.0363207 106,24.7649535 C106,36.4929321 96.5984536,46 85.0006469,46" id="Fill-12-Copy" fill="#D20050" transform="translate(85.000000, 23.000000) scale(-1, 1) translate(-85.000000, -23.000000) "></path>
                </g>
            </g>
        </g>
    </g>
</svg>