<?xml version="1.0" encoding="UTF-8"?>
<svg width="24px" height="24px" viewBox="0 0 24 24" version="1.1" xmlns="http://www.w3.org/2000/svg" xmlns:xlink="http://www.w3.org/1999/xlink">
    <title>FCA25885-82AE-4D15-AB11-A264F9D8AAEE</title>
    <g id="Artboards" stroke="none" stroke-width="1" fill="none" fill-rule="evenodd">
        <g id="ASSETS" transform="translate(-1097.000000, -521.000000)" fill="#343852">
            <g id="ICONES-FONCTIONNELLES" transform="translate(201.000000, 428.000000)">
                <g id="02.Icons/Functionnal/Chevron-right" transform="translate(896.000000, 93.000000)">
                    <path d="M13.7700789,11.6700049 L11.3600789,9.23000492 C11.2113588,9.08201916 11.009881,8.99926932 10.8000789,9 L10.8000789,9 C10.4796912,8.99887762 10.1903493,9.1913672 10.0675896,9.48730568 C9.94482997,9.78324415 10.0129653,10.1240206 10.2400789,10.3500049 L12.0800789,12.2300049 L10.2300789,14.0800049 C10.0801691,14.2274395 9.9970712,14.4297649 10.0000789,14.6400049 C10.0000789,14.849526 10.0833108,15.0504655 10.2314645,15.1986193 C10.3796183,15.346773 10.5805579,15.4300098 10.7900789,15.4300098 L10.7900789,15.4300098 C10.999881,15.4307405 11.2013588,15.3479907 11.3500789,15.2000049 L13.7600789,12.7900049 C14.0649932,12.4789301 14.0649932,11.9810797 13.7600789,11.6700049 L13.7700789,11.6700049 Z" id="chevron-right"></path>
                </g>
            </g>
        </g>
    </g>
</svg>