<?xml version="1.0" encoding="UTF-8"?>
<svg width="92px" height="83px" viewBox="0 0 92 83" version="1.1" xmlns="http://www.w3.org/2000/svg" xmlns:xlink="http://www.w3.org/1999/xlink">
    <title>E39BD1FE-043D-4CD9-9DFC-DB664361CBEB</title>
    <g id="Artboards" stroke="none" stroke-width="1" fill="none" fill-rule="evenodd">
        <g id="ASSETS" transform="translate(-609.000000, -204.000000)" fill-rule="nonzero">
            <g id="LOGO_ANS_2020_RVB" transform="translate(609.000000, 204.500000)">
                <g id="Group" transform="translate(0.285714, 0.000000)" fill="#6F7072">
                    <path d="M21.4857143,7.57142857 C19,1.45714286 12.2,-1.57142857 6.31428571,0.828571429 L19.2571429,32.6857143 C21.7428571,38.8285714 28.5428571,41.8571429 34.4285714,39.4571429 L21.4857143,7.57142857 Z" id="Path"></path>
                    <path d="M6.14285714,22.8 C2.8,22.8 0.0857142857,25.5142857 0.0857142857,28.8571429 L0.0857142857,40.2571429 L0.828571429,40.2571429 C7.11428571,40.2571429 12.1714286,35.1714286 12.1714286,28.9142857 L12.1714286,28.8571429 C12.1714286,25.5142857 9.48571429,22.8 6.14285714,22.8 Z" id="Path"></path>
                </g>
                <path d="M37.3142857,14 L37.3142857,34.2285714 C37.3142857,37.5714286 40.0285714,40.2857143 43.3714286,40.2857143 L43.3714286,40.2857143 C46.7142857,40.2857143 49.4285714,37.5714286 49.4285714,34.2285714 L49.4285714,29.0285714 C49.4285714,28.2285714 49.1428571,27.4571429 48.6285714,26.8857143 L37.3142857,14 Z" id="Path" fill="#D20050"></path>
                <path d="M75.6571429,40.2571429 L75.6571429,40.2571429 C70.2285714,40.2571429 65.8285714,36.1714286 65.8285714,31.1142857 L65.8285714,17.7428571 L65.8285714,17.7428571 C68.3428571,20.2857143 71.8285714,21.8 75.5142857,21.9714286 L75.6285714,21.9714286 C81.0571429,21.9714286 85.4572812,26.0571429 85.4572812,31.1142857 L85.4572812,31.1142857 C85.4857143,36.1714286 81.0857143,40.2571429 75.6571429,40.2571429 Z" id="Path" fill="#4171B1"></path>
                <path d="M60.8,27 L60.8,6.05714286 C60.8,2.71428571 58.0857143,0 54.7428571,0 L54.7428571,0 C51.4,0 48.6857143,2.71428571 48.6857143,6.05714286 L48.6857143,11.8571429 C48.6857143,12.6857143 49,13.4857143 49.5428571,14.1142857 L60.8,27 Z" id="Path" fill="#D20050"></path>
                <path d="M84.8,15.8285714 L84.8,15.8285714 C83.3142857,14.3142857 80.7714286,13.3428571 78.4285714,13.3142857 L77.6857143,13.3142857 C73.7714286,13.3142857 70.5714286,10.3428571 70.5714286,6.65714286 L70.5714286,6.65714286 C70.6,2.97142857 73.7714286,0 77.7142857,0 L77.7142857,0 C81.6285714,0 84.8285714,2.97142857 84.8285714,6.65714286 L84.8285714,15.8285714 L84.8,15.8285714 Z" id="Path" fill="#4171B1"></path>
                <g id="Group" transform="translate(0.000000, 48.285714)">
                    <path d="M4.31428571,0.0285714286 L4.68571429,0.0285714286 L9.02857143,9.2 L6.68571429,9.2 L6.22857143,8.28571429 L2.77142857,8.28571429 L2.34285714,9.2 L0,9.2 L4.31428571,0.0285714286 Z M5.54285714,6.74285714 L4.51428571,4.48571429 L4.48571429,4.48571429 L3.45714286,6.74285714 L5.54285714,6.74285714 Z" id="Shape" fill="#6F7072"></path>
                    <path d="M13.4571429,0.0285714286 C15.1142857,0.0285714286 16.2285714,0.628571429 17.1714286,1.57142857 L15.6571429,2.97142857 C15.0571429,2.42857143 14.2857143,2.08571429 13.4571429,2.08571429 C11.8857143,2.08571429 10.8571429,3.25714286 10.8571429,4.77142857 C10.8571429,6.42857143 12.0285714,7.45714286 13.5142857,7.45714286 C15.0571429,7.45714286 15.8285714,6.6 15.8857143,5.74285714 L13.3428571,5.74285714 L13.3428571,3.85714286 L18.2285714,3.85714286 L18.2285714,4.71428571 C18.2285714,7.34285714 16.6857143,9.51428571 13.4571429,9.51428571 C10.6571429,9.51428571 8.65714286,7.42857143 8.65714286,4.77142857 C8.62857143,2.11428571 10.6285714,0.0285714286 13.4571429,0.0285714286 Z" id="Path" fill="#6F7072"></path>
                    <polygon id="Path" fill="#6F7072" points="18.8285714 0.342857143 24.7142857 0.342857143 24.7142857 2.25714286 21 2.25714286 21 3.85714286 24.4285714 3.85714286 24.4285714 5.74285714 21 5.74285714 21 7.34285714 24.8571429 7.34285714 24.8571429 9.2 18.8285714 9.2"></polygon>
                    <polygon id="Path" fill="#6F7072" points="25.9142857 0.342857143 28.2 0.342857143 31.6571429 5.62857143 31.6571429 0.342857143 33.8285714 0.342857143 33.8285714 9.22857143 31.5714286 9.22857143 28.1142857 3.94285714 28.1142857 9.22857143 25.9428571 9.22857143 25.9428571 0.342857143"></polygon>
                    <path d="M39.3428571,0.0285714286 C41.0285714,0.0285714286 42.2,0.657142857 43.1428571,1.65714286 L41.6571429,3.08571429 C41.0285714,2.48571429 40.2285714,2.08571429 39.3428571,2.08571429 C37.7714286,2.08571429 36.7428571,3.25714286 36.7428571,4.77142857 C36.7428571,6.28571429 37.7714286,7.45714286 39.3428571,7.45714286 C40.2285714,7.45714286 41.0285714,7.08571429 41.6571429,6.45714286 L43.1142857,7.88571429 C42.2285714,8.82857143 41,9.51428571 39.3428571,9.51428571 C36.5428571,9.51428571 34.5428571,7.42857143 34.5428571,4.77142857 C34.5142857,2.11428571 36.5142857,0.0285714286 39.3428571,0.0285714286 Z" id="Path" fill="#6F7072"></path>
                    <polygon id="Path" fill="#6F7072" points="43.5428571 0.342857143 49.4285714 0.342857143 49.4285714 2.25714286 45.7142857 2.25714286 45.7142857 3.85714286 49.1428571 3.85714286 49.1428571 5.74285714 45.7142857 5.74285714 45.7142857 7.34285714 49.5714286 7.34285714 49.5714286 9.2 43.5142857 9.2 43.5142857 0.342857143"></polygon>
                    <path d="M0.485714286,12.0571429 L3.57142857,12.0571429 C6.2,12.0571429 8.22857143,13.9714286 8.22857143,16.4857143 C8.22857143,18.8571429 6.42857143,20.9428571 3.57142857,20.9428571 L0.485714286,20.9428571 L0.485714286,12.0571429 Z M3.51428571,18.9428571 C4.91428571,18.9428571 5.97142857,17.9714286 5.97142857,16.4571429 C5.97142857,15.0857143 5.02857143,14 3.51428571,14 L2.65714286,14 L2.65714286,18.9428571 L3.51428571,18.9428571 L3.51428571,18.9428571 Z" id="Shape" fill="#D20050"></path>
                    <path d="M8.97142857,12.0571429 L11.1428571,12.0571429 L11.1428571,17.6285714 C11.1428571,18.8 11.7142857,19.2285714 12.4571429,19.2285714 C13.2857143,19.2285714 13.8,18.8 13.8,17.6285714 L13.8,12.0571429 L15.9714286,12.0571429 L15.9714286,17.9428571 C15.9714286,20.0571429 14.4,21.2285714 12.4571429,21.2285714 C10.4285714,21.2285714 8.97142857,19.9714286 8.97142857,17.9428571 L8.97142857,12.0571429 L8.97142857,12.0571429 Z" id="Path" fill="#D20050"></path>
                    <polygon id="Path" fill="#D20050" points="20.9428571 12.0571429 23.2285714 12.0571429 26.6857143 17.3428571 26.6857143 12.0571429 28.8571429 12.0571429 28.8571429 20.9428571 26.5714286 20.9428571 23.1142857 15.6571429 23.1142857 20.9428571 20.9428571 20.9428571 20.9428571 12.0571429"></polygon>
                    <path d="M29.8857143,12.0571429 L32.0571429,12.0571429 L32.0571429,17.6285714 C32.0571429,18.8 32.6285714,19.2285714 33.3714286,19.2285714 C34.2,19.2285714 34.7142857,18.8 34.7142857,17.6285714 L34.7142857,12.0571429 L36.8857143,12.0571429 L36.8857143,17.9428571 C36.8857143,20.0571429 35.3142857,21.2285714 33.3714286,21.2285714 C31.3428571,21.2285714 29.8857143,19.9714286 29.8857143,17.9428571 L29.8857143,12.0571429 Z" id="Path" fill="#D20050"></path>
                    <polygon id="Path" fill="#D20050" points="38.3142857 12.0571429 40.3428571 12.0571429 42.6 16.8571429 44.8857143 12.0571429 46.8857143 12.0571429 46.8857143 20.9428571 44.7142857 20.9428571 44.7142857 17 42.7714286 21.2571429 42.4285714 21.2571429 40.4857143 16.9714286 40.4857143 20.9428571 38.3142857 20.9428571"></polygon>
                    <path d="M48.3142857,12.0571429 L54.2,12.0571429 L54.2,13.9714286 L50.4857143,13.9714286 L50.4857143,15.5714286 L53.9142857,15.5714286 L53.9142857,17.4571429 L50.4857143,17.4571429 L50.4857143,19.0571429 L54.3428571,19.0571429 L54.3428571,20.9142857 L48.2857143,20.9142857 L48.2857143,12.0571429 L48.3142857,12.0571429 Z M50.8857143,10.7142857 L52.7142857,10.7142857 L51.8857143,11.8857143 L50.4,11.8857143 L50.8857143,10.7142857 Z" id="Shape" fill="#D20050"></path>
                    <path d="M55.4285714,12.0571429 L59.1428571,12.0571429 C61.0571429,12.0571429 62.2857143,13.2 62.2857143,14.8857143 C62.2857143,16.4285714 61.5142857,17.3142857 60.1714286,17.6285714 L62.5714286,20.9428571 L59.8571429,20.9428571 L57.6,17.6285714 L57.6,20.9428571 L55.4285714,20.9428571 L55.4285714,12.0571429 Z M59.3428571,15.9142857 C59.8285714,15.9142857 60.1714286,15.4 60.1714286,14.8857143 C60.1714286,14.3714286 59.8,13.9142857 59.2857143,13.9142857 L57.6,13.9142857 L57.6,15.9142857 L59.3428571,15.9142857 Z" id="Shape" fill="#D20050"></path>
                    <polygon id="Path" fill="#D20050" points="63.3428571 12.0571429 65.5142857 12.0571429 65.5142857 20.9428571 63.3428571 20.9428571"></polygon>
                    <path d="M71.0857143,11.7428571 C73.8857143,11.7428571 75.8571429,13.8857143 75.8571429,16.4857143 C75.8571429,17.7428571 75.4,18.8285714 74.6571429,19.6857143 L76.1428571,21.0571429 L73.3714286,21.0571429 L73.0857143,20.8 C72.4857143,21.0571429 71.8,21.2285714 71.0571429,21.2285714 C68.2571429,21.2285714 66.2857143,19.1142857 66.2857143,16.5142857 C66.2857143,13.9142857 68.2857143,11.7428571 71.0857143,11.7428571 Z M71.0857143,19.2 C71.2,19.2 71.2857143,19.2 71.4,19.1714286 L69.5428571,17.3714286 L72.2,17.3714286 L73.1428571,18.2571429 C73.5142857,17.7714286 73.7142857,17.1714286 73.7142857,16.5142857 C73.7142857,15.0285714 72.6857143,13.8 71.1142857,13.8 C69.5428571,13.8 68.5142857,15.0285714 68.5142857,16.5142857 C68.4857143,18 69.5142857,19.2 71.0857143,19.2 Z" id="Shape" fill="#D20050"></path>
                    <path d="M77.3714286,12.0571429 L79.5428571,12.0571429 L79.5428571,17.6285714 C79.5428571,18.8 80.1142857,19.2285714 80.8571429,19.2285714 C81.6857143,19.2285714 82.2,18.8 82.2,17.6285714 L82.2,12.0571429 L84.3714286,12.0571429 L84.3714286,17.9428571 C84.3714286,20.0571429 82.8,21.2285714 80.8571429,21.2285714 C78.8285714,21.2285714 77.3714286,19.9714286 77.3714286,17.9428571 L77.3714286,12.0571429 L77.3714286,12.0571429 Z" id="Path" fill="#D20050"></path>
                    <polygon id="Path" fill="#D20050" points="85.8 12.0571429 91.6857143 12.0571429 91.6857143 13.9714286 87.9714286 13.9714286 87.9714286 15.5714286 91.4 15.5714286 91.4 17.4571429 87.9714286 17.4571429 87.9714286 19.0571429 91.8285714 19.0571429 91.8285714 20.9142857 85.7714286 20.9142857 85.7714286 12.0571429"></polygon>
                    <polygon id="Path" fill="#1D70B7" points="0.485714286 23.7714286 6.37142857 23.7714286 6.37142857 25.6857143 2.65714286 25.6857143 2.65714286 27.2857143 6.08571429 27.2857143 6.08571429 29.1714286 2.65714286 29.1714286 2.65714286 30.7714286 6.51428571 30.7714286 6.51428571 32.6285714 0.485714286 32.6285714"></polygon>
                    <polygon id="Path" fill="#4171B1" points="7.57142857 23.7714286 9.85714286 23.7714286 13.3142857 29.0571429 13.3142857 23.7714286 15.4857143 23.7714286 15.4857143 32.6571429 13.2285714 32.6571429 9.77142857 27.3714286 9.77142857 32.6571429 7.6 32.6571429 7.6 23.7714286"></polygon>
                    <path d="M22.7428571,30.0571429 C22.7428571,30.5714286 23.1714286,31 23.6571429,31 C24.2,31 24.5428571,30.6857143 24.5428571,30.2285714 C24.5428571,29.5714286 23.6571429,29.3714286 22.9428571,29.1142857 C21.4571429,28.5714286 20.6285714,27.8857143 20.6285714,26.3714286 C20.6285714,24.8 21.9714286,23.4857143 23.6571429,23.4857143 C25.6285714,23.4857143 26.5714286,24.7428571 26.6857143,26.4 L24.6285714,26.4 C24.6285714,25.8857143 24.3142857,25.4857143 23.7142857,25.4857143 C23.2285714,25.4857143 22.7714286,25.7714286 22.7714286,26.3428571 C22.7714286,27 23.6,27.1142857 24.3428571,27.3428571 C25.9142857,27.8285714 26.6571429,28.7142857 26.6571429,30.0857143 C26.6571429,31.6571429 25.3142857,32.9714286 23.6571429,32.9714286 C21.7142857,32.9714286 20.6285714,31.6571429 20.6285714,30.0571429 L22.7428571,30.0571429 L22.7428571,30.0571429 Z" id="Path" fill="#4171B1"></path>
                    <path d="M30.9714286,23.4857143 L31.3428571,23.4857143 L35.6857143,32.6571429 L33.3428571,32.6571429 L32.8857143,31.7428571 L29.3714286,31.7428571 L28.9428571,32.6571429 L26.6,32.6571429 L30.9714286,23.4857143 Z M32.1714286,30.1714286 L31.1428571,27.9142857 L31.1142857,27.9142857 L30.0857143,30.1714286 L32.1714286,30.1714286 Z" id="Shape" fill="#4171B1"></path>
                    <polygon id="Path" fill="#4171B1" points="36.2857143 23.7714286 38.5714286 23.7714286 42.0285714 29.0571429 42.0285714 23.7714286 44.2 23.7714286 44.2 32.6571429 41.9428571 32.6571429 38.4857143 27.3714286 38.4857143 32.6571429 36.2857143 32.6571429"></polygon>
                    <polygon id="Path" fill="#4171B1" points="47.1714286 25.6857143 45.2 25.6857143 45.2 23.7714286 51.4 23.7714286 51.4 25.6857143 49.4 25.6857143 49.4 32.6571429 47.2 32.6571429 47.2 25.6857143"></polygon>
                    <path d="M52.4,23.7714286 L58.2857143,23.7714286 L58.2857143,25.6857143 L54.5714286,25.6857143 L54.5714286,27.2857143 L58,27.2857143 L58,29.1714286 L54.5714286,29.1714286 L54.5714286,30.7714286 L58.4285714,30.7714286 L58.4285714,32.6285714 L52.3714286,32.6285714 L52.3714286,23.7714286 L52.4,23.7714286 Z M54.9714286,22.4285714 L56.8,22.4285714 L55.9714286,23.6 L54.4857143,23.6 L54.9714286,22.4285714 Z" id="Shape" fill="#4171B1"></path>
                </g>
            </g>
        </g>
    </g>
</svg>