<?xml version="1.0" encoding="UTF-8"?>
<svg width="1025px" height="1025px" viewBox="0 0 1025 1025" version="1.1" xmlns="http://www.w3.org/2000/svg" xmlns:xlink="http://www.w3.org/1999/xlink">
    <title>FEA5AC2B-D00A-4F92-B5D9-13AB9A5786FC</title>
    <defs>
        <filter id="filter-1">
            <feColorMatrix in="SourceGraphic" type="matrix" values="0 0 0 0 0.870588 0 0 0 0 0.878431 0 0 0 0 0.917647 0 0 0 1.000000 0"></feColorMatrix>
        </filter>
    </defs>
    <g id="Artboards" stroke="none" stroke-width="1" fill="none" fill-rule="evenodd" opacity="0.479401344">
        <g id="HABILLAGE-HOME-LEFT" transform="translate(-113.000000, -1671.000000)" filter="url(#filter-1)">
            <g transform="translate(625.298863, 2183.298863) rotate(-45.000000) translate(-625.298863, -2183.298863) translate(161.298863, 1922.798863)">
                <path d="M859.831599,553.600399 L859.93954,356.514226 C859.95736,323.959213 833.119584,297.582412 799.987367,297.600399 C766.859061,297.618403 739.984558,324.024379 739.96673,356.579392 L739.93954,406.21887 C739.935103,414.330724 742.933945,422.164276 748.365954,428.274996 L859.831599,553.600399 Z" id="Fill-7-Copy" fill="#D50C51" transform="translate(799.939540, 425.600399) rotate(-90.000000) translate(-799.939540, -425.600399) "></path>
                <path d="M664.700904,313.017265 L664.700904,344.755161 C640.889542,305.7611 602.258474,283.018623 568.936058,276.068566 C518.608418,265.591304 491.700904,235.919641 491.700904,188.723261 C491.700904,139.03627 530.426408,98.7551614 578.204277,98.7551614 C625.9754,98.7551614 664.700904,139.03627 664.700904,188.723261 L664.700904,313.017265 Z" id="Fill-15" fill="#1E70B7"></path>
                <path d="M626.336943,439.993072 L626.336943,465.925255 C606.929995,434.064254 575.444558,415.481986 548.285826,409.803281 C507.267344,401.242591 485.336943,376.998671 485.336943,338.435775 C485.336943,297.837868 516.899348,264.925255 555.839692,264.925255 C594.774538,264.925255 626.336943,297.837868 626.336943,338.435775 L626.336943,439.993072 Z" id="Fill-15-Copy" fill="#1E70B7" transform="translate(555.836943, 365.425255) rotate(-180.000000) translate(-555.836943, -365.425255) "></path>
                <path d="M253.236695,461.480557 L253.225301,461.480557 C151.083703,461.449542 68.2593135,378.440142 68.2282253,276.070228 L68.1625789,66.8822647 L68.1625789,59.9045742 C82.6272839,76.0455862 111.665012,89.7927975 170.604096,90.7414267 L253.124115,90.766474 C355.265713,90.7974772 438.090102,173.806877 438.121201,276.182502 C438.15228,378.552416 355.378293,461.511552 253.236695,461.480557" id="Fill-12" fill="#1E70B7" transform="translate(253.141890, 260.692566) rotate(-25.000000) translate(-253.141890, -260.692566) "></path>
            </g>
        </g>
    </g>
</svg>