<?xml version="1.0" encoding="UTF-8"?>
<svg width="628px" height="410px" viewBox="0 0 628 410" version="1.1" xmlns="http://www.w3.org/2000/svg" xmlns:xlink="http://www.w3.org/1999/xlink">
    <title>7CEC69CA-6BCD-413C-A494-591746448EC3</title>
    <g id="Artboards" stroke="none" stroke-width="1" fill="none" fill-rule="evenodd">
        <g id="ASSETS" transform="translate(-213.000000, -1466.000000)">
            <g id="HABILLAGE-HOME-RIGHT" transform="translate(527.000000, 1671.000000) scale(1, -1) translate(-527.000000, -1671.000000) translate(213.000000, 1466.000000)">
                <path d="M168,412.712896 L168,438 C148.868328,406.931561 117.829493,388.811538 91.055991,383.274095 C50.6193317,374.926357 29,351.28552 29,313.6819 C29,274.093891 60.1147113,242 98.5027099,242 C136.885289,242 168,274.093891 168,313.6819 L168,412.712896 Z" id="Fill-15-Copy-4" fill="#1D71B8" transform="translate(98.500000, 340.000000) rotate(-270.000000) translate(-98.500000, -340.000000) "></path>
                <path d="M231,-143 L231,272.681996 C231,341.353125 287.626283,397 357.504123,397 C427.357224,397 484,341.353125 484,272.681996 L484,165.853935 C484,149.563487 477.955575,133.807949 467.021186,121.561746 L231,-143 Z" id="Fill-9-Copy-2" fill="#D20050" transform="translate(357.500000, 127.000000) rotate(-270.000000) translate(-357.500000, -127.000000) "></path>
            </g>
        </g>
    </g>
</svg>