<?xml version="1.0" encoding="UTF-8"?>
<svg width="224px" height="45px" viewBox="0 0 224 45" version="1.1" xmlns="http://www.w3.org/2000/svg" xmlns:xlink="http://www.w3.org/1999/xlink">
    <title>16B271E2-BEB9-4F81-ACB7-80517030CA79</title>
    <g id="Artboards" stroke="none" stroke-width="1" fill="none" fill-rule="evenodd">
        <g id="ASSETS" transform="translate(-196.000000, -223.000000)" fill-rule="nonzero">
            <g id="LOGO" transform="translate(196.500000, 223.000000)">
                <path d="M23.7460751,8.6003413 C21.0061433,1.90273038 13.5474403,-1.44607509 7.078157,1.14163823 L21.3105802,36.0757679 C24.0505119,42.7733788 31.509215,46.1221843 37.9784983,43.534471 L23.7460751,8.6003413 Z" id="Path" fill="#706F6F"></path>
                <path d="M6.84982935,25.2682594 C3.19658703,25.2682594 0.228327645,28.2365188 0.228327645,31.8897611 L0.228327645,44.3716724 L1.06552901,44.3716724 C7.91535836,44.3716724 13.5474403,38.8156997 13.5474403,31.8897611 L13.5474403,31.8136519 C13.5474403,28.2365188 10.5791809,25.2682594 6.84982935,25.2682594" id="Path" fill="#706F6F"></path>
                <path d="M40.7945392,15.6023891 L40.7945392,37.7501706 C40.7945392,41.403413 43.7627986,44.3716724 47.416041,44.3716724 C51.0692833,44.3716724 54.0375427,41.403413 54.0375427,37.7501706 L54.0375427,32.0419795 C54.0375427,31.2047782 53.7331058,30.3675768 53.1242321,29.6825939 L40.7945392,15.6023891 Z" id="Path" fill="#D60B52"></path>
                <path d="M82.8829352,44.4477816 L82.8829352,44.4477816 C76.9464164,44.4477816 72.1515358,39.9573379 72.1515358,34.4013652 L72.1515358,19.7122867 C74.8914676,22.5283276 78.6969283,24.2027304 82.8068259,24.3549488 L82.9590444,24.3549488 C88.8955631,24.3549488 93.6904437,28.8453925 93.6904437,34.4013652 C93.6143345,39.9573379 88.8194539,44.4477816 82.8829352,44.4477816" id="Path" fill="#1D71B8"></path>
                <path d="M66.5194539,29.8348123 L66.5194539,6.92593857 C66.5194539,3.27269625 63.5511945,0.30443686 59.8979522,0.30443686 C56.2447099,0.30443686 53.2764505,3.27269625 53.2764505,6.92593857 L53.2764505,13.3191126 C53.2764505,14.2324232 53.5808874,15.1457338 54.1897611,15.8307167 L66.5194539,29.8348123 Z" id="Path" fill="#D60B52"></path>
                <path d="M92.8532423,17.6573379 L92.8532423,17.6573379 C91.2549488,15.9829352 88.4389078,14.9174061 85.8511945,14.9174061 L85.0139932,14.9174061 C80.6757679,14.9174061 77.2508532,11.6447099 77.2508532,7.6109215 C77.2508532,3.57713311 80.7518771,0.30443686 85.0139932,0.30443686 C89.3522184,0.30443686 92.7771331,3.57713311 92.7771331,7.6109215 L92.7771331,17.6573379 L92.8532423,17.6573379 Z" id="Path" fill="#1D71B8"></path>
                <path d="M107.390102,0.76109215 L107.922867,0.76109215 L113.631058,12.7863481 L110.586689,12.7863481 L109.977816,11.5686007 L105.335154,11.5686007 L104.802389,12.7863481 L101.75802,12.7863481 L107.390102,0.76109215 Z M108.912287,9.58976109 L107.542321,6.62150171 L107.466212,6.62150171 L106.096246,9.58976109 L108.912287,9.58976109 Z" id="Shape" fill="#706F6F"></path>
                <path d="M119.339249,0.76109215 C121.470307,0.76109215 122.992491,1.5221843 124.210239,2.81604096 L122.231399,4.64266212 C121.470307,3.95767918 120.404778,3.50102389 119.339249,3.50102389 C117.2843,3.50102389 115.914334,5.02320819 115.914334,7.00204778 C115.914334,9.1331058 117.436519,10.5030717 119.415358,10.5030717 C121.470307,10.5030717 122.459727,9.36143345 122.535836,8.21979522 L119.187031,8.21979522 L119.187031,5.78430034 L125.580205,5.78430034 L125.580205,6.92593857 C125.580205,10.3508532 123.525256,13.2430034 119.339249,13.2430034 C115.609898,13.2430034 113.022184,10.5030717 113.022184,7.00204778 C113.022184,3.57713311 115.609898,0.76109215 119.339249,0.76109215" id="Path" fill="#706F6F"></path>
                <polygon id="Path" fill="#706F6F" points="126.417406 1.21774744 134.104437 1.21774744 134.104437 3.72935154 129.233447 3.72935154 129.233447 5.78430034 133.723891 5.78430034 133.723891 8.29590444 129.233447 8.29590444 129.233447 10.4269625 134.332765 10.4269625 134.332765 12.8624573 126.417406 12.8624573"></polygon>
                <polygon id="Path" fill="#706F6F" points="135.70273 1.21774744 138.747099 1.21774744 143.237543 8.14368601 143.237543 1.21774744 146.129693 1.21774744 146.129693 12.8624573 143.161433 12.8624573 138.594881 5.93651877 138.594881 12.8624573 135.70273 12.8624573"></polygon>
                <path d="M153.283959,0.76109215 C155.491126,0.76109215 157.013311,1.59829352 158.307167,2.89215017 L156.328328,4.79488055 C155.491126,4.0337884 154.425597,3.50102389 153.283959,3.50102389 C151.22901,3.50102389 149.859044,5.02320819 149.859044,7.00204778 C149.859044,8.98088737 151.22901,10.5030717 153.283959,10.5030717 C154.425597,10.5030717 155.491126,9.97030717 156.328328,9.20921502 L158.231058,11.1119454 C157.08942,12.3296928 155.415017,13.2430034 153.283959,13.2430034 C149.554608,13.2430034 146.966894,10.5030717 146.966894,7.00204778 C146.966894,3.57713311 149.630717,0.76109215 153.283959,0.76109215" id="Path" fill="#706F6F"></path>
                <polygon id="Path" fill="#706F6F" points="158.839932 1.21774744 166.603072 1.21774744 166.603072 3.72935154 161.732082 3.72935154 161.732082 5.78430034 166.222526 5.78430034 166.222526 8.29590444 161.732082 8.29590444 161.732082 10.4269625 166.831399 10.4269625 166.831399 12.8624573 158.839932 12.8624573"></polygon>
                <path d="M102.290785,16.5918089 L106.324573,16.5918089 C109.749488,16.5918089 112.413311,19.103413 112.413311,22.3761092 C112.413311,25.496587 110.053925,28.2365188 106.324573,28.2365188 L102.290785,28.2365188 L102.290785,16.5918089 Z M106.324573,25.6488055 C108.151195,25.6488055 109.52116,24.3549488 109.52116,22.3761092 C109.52116,20.5494881 108.303413,19.1795222 106.324573,19.1795222 L105.182935,19.1795222 L105.182935,25.6488055 L106.324573,25.6488055 Z" id="Shape" fill="#D60B52"></path>
                <path d="M113.47884,16.5918089 L116.294881,16.5918089 L116.294881,23.8982935 C116.294881,25.4204778 117.055973,26.0293515 118.045392,26.0293515 C119.110922,26.0293515 119.795904,25.496587 119.795904,23.8982935 L119.795904,16.5918089 L122.688055,16.5918089 L122.688055,24.3549488 C122.688055,27.0948805 120.633106,28.6931741 118.045392,28.6931741 C115.38157,28.6931741 113.47884,27.0948805 113.47884,24.3549488 L113.47884,16.5918089 L113.47884,16.5918089 Z" id="Path" fill="#D60B52"></path>
                <polygon id="Path" fill="#D60B52" points="129.157338 16.5918089 132.201706 16.5918089 136.69215 23.5177474 136.69215 16.5918089 139.5843 16.5918089 139.5843 28.2365188 136.539932 28.2365188 132.049488 21.3105802 132.049488 28.2365188 129.157338 28.2365188"></polygon>
                <path d="M140.954266,16.5918089 L143.770307,16.5918089 L143.770307,23.8982935 C143.770307,25.4204778 144.531399,26.0293515 145.520819,26.0293515 C146.586348,26.0293515 147.271331,25.496587 147.271331,23.8982935 L147.271331,16.5918089 L150.163481,16.5918089 L150.163481,24.3549488 C150.163481,27.0948805 148.108532,28.6931741 145.520819,28.6931741 C142.856997,28.6931741 140.954266,27.0948805 140.954266,24.3549488 L140.954266,16.5918089 L140.954266,16.5918089 Z" id="Path" fill="#D60B52"></path>
                <polygon id="Path" fill="#D60B52" points="151.990102 16.5918089 154.653925 16.5918089 157.622184 22.9088737 160.666553 16.5918089 163.254266 16.5918089 163.254266 28.2365188 160.438225 28.2365188 160.438225 23.0610922 157.850512 28.6170648 157.393857 28.6170648 154.882253 22.9849829 154.882253 28.2365188 151.990102 28.2365188"></polygon>
                <path d="M165.156997,16.5918089 L172.844027,16.5918089 L172.844027,19.103413 L167.973038,19.103413 L167.973038,21.234471 L172.463481,21.234471 L172.463481,23.7460751 L167.973038,23.7460751 L167.973038,25.8771331 L173.072355,25.8771331 L173.072355,28.312628 L165.156997,28.312628 L165.156997,16.5918089 Z M168.505802,14.8412969 L170.941297,14.8412969 L169.875768,16.3634812 L167.896928,16.3634812 L168.505802,14.8412969 Z" id="Shape" fill="#D60B52"></path>
                <path d="M174.442321,16.5918089 L179.313311,16.5918089 C181.824915,16.5918089 183.423208,18.1139932 183.423208,20.3211604 C183.423208,22.3761092 182.357679,23.5177474 180.683276,23.9744027 L183.803754,28.312628 L180.226621,28.312628 L177.258362,23.9744027 L177.258362,28.312628 L174.366212,28.312628 L174.366212,16.5918089 L174.442321,16.5918089 Z M179.617747,21.6150171 C180.226621,21.6150171 180.683276,20.9300341 180.683276,20.2450512 C180.683276,19.5600683 180.150512,18.9511945 179.541638,18.9511945 L177.334471,18.9511945 L177.334471,21.6150171 L179.617747,21.6150171 Z" id="Shape" fill="#D60B52"></path>
                <rect id="Rectangle" fill="#D60B52" x="184.869283" y="16.5918089" width="2.89215017" height="11.6447099"></rect>
                <path d="M194.991809,16.2112628 C198.645051,16.2112628 201.308874,19.0273038 201.308874,22.4522184 C201.308874,24.0505119 200.7,25.5726962 199.71058,26.6382253 L201.68942,28.4648464 L198.036177,28.4648464 L197.655631,28.0843003 C196.894539,28.4648464 195.981229,28.6170648 194.991809,28.6170648 C191.338567,28.6170648 188.674744,25.8771331 188.674744,22.3761092 C188.674744,18.8750853 191.338567,16.2112628 194.991809,16.2112628 M194.991809,25.9532423 C195.144027,25.9532423 195.296246,25.9532423 195.372355,25.9532423 L192.93686,23.5938567 L196.437884,23.5938567 L197.655631,24.7354949 C198.112287,24.1266212 198.416724,23.2894198 198.416724,22.4522184 C198.416724,20.4733788 197.046758,18.8750853 194.991809,18.8750853 C192.93686,18.8750853 191.566894,20.4733788 191.566894,22.4522184 C191.566894,24.3549488 192.93686,25.9532423 194.991809,25.9532423" id="Shape" fill="#D60B52"></path>
                <path d="M203.287713,16.5918089 L206.103754,16.5918089 L206.103754,23.8982935 C206.103754,25.4204778 206.864846,26.0293515 207.854266,26.0293515 C208.919795,26.0293515 209.604778,25.496587 209.604778,23.8982935 L209.604778,16.5918089 L212.496928,16.5918089 L212.496928,24.3549488 C212.496928,27.0948805 210.44198,28.6931741 207.854266,28.6931741 C205.190444,28.6931741 203.287713,27.0948805 203.287713,24.3549488 L203.287713,16.5918089 Z" id="Path" fill="#D60B52"></path>
                <polygon id="Path" fill="#D60B52" points="214.399659 16.5918089 222.086689 16.5918089 222.086689 19.103413 217.2157 19.103413 217.2157 21.234471 221.706143 21.234471 221.706143 23.6699659 217.2157 23.6699659 217.2157 25.8010239 222.315017 25.8010239 222.315017 28.2365188 214.399659 28.2365188"></polygon>
                <polygon id="Path" fill="#1D71B8" points="102.290785 31.9658703 110.053925 31.9658703 110.053925 34.4774744 105.182935 34.4774744 105.182935 36.6085324 109.673379 36.6085324 109.673379 39.1201365 105.182935 39.1201365 105.182935 41.1750853 110.206143 41.1750853 110.206143 43.6105802 102.290785 43.6105802"></polygon>
                <polygon id="Path" fill="#1D71B8" points="111.576109 31.9658703 114.620478 31.9658703 119.187031 38.8918089 119.187031 31.9658703 122.003072 31.9658703 122.003072 43.6105802 119.034812 43.6105802 114.468259 36.6846416 114.468259 43.6105802 111.576109 43.6105802"></polygon>
                <path d="M131.516724,40.1856655 C131.516724,40.8706485 132.049488,41.403413 132.734471,41.403413 C133.419454,41.403413 133.876109,41.0228669 133.876109,40.4139932 C133.876109,39.5767918 132.734471,39.2723549 131.745051,38.9679181 C129.766212,38.2829352 128.700683,37.3696246 128.700683,35.3146758 C128.700683,33.259727 130.451195,31.509215 132.658362,31.509215 C135.246075,31.509215 136.463823,33.1836177 136.616041,35.3146758 L133.952218,35.3146758 C133.952218,34.6296928 133.571672,34.0969283 132.734471,34.0969283 C132.125597,34.0969283 131.516724,34.4774744 131.516724,35.2385666 C131.516724,36.1518771 132.582253,36.3040956 133.571672,36.5324232 C135.626621,37.1412969 136.616041,38.3590444 136.616041,40.1856655 C136.616041,42.2406143 134.865529,43.9911263 132.658362,43.9911263 C130.146758,43.9911263 128.700683,42.3167235 128.700683,40.1856655 L131.516724,40.1856655 Z" id="Path" fill="#1D71B8"></path>
                <path d="M142.324232,31.5853242 L142.856997,31.5853242 L148.565188,43.6105802 L145.520819,43.6105802 L144.911945,42.3928328 L140.269283,42.3928328 L139.736519,43.6105802 L136.69215,43.6105802 L142.324232,31.5853242 Z M143.922526,40.4139932 L142.55256,37.4457338 L142.476451,37.4457338 L141.106485,40.4139932 L143.922526,40.4139932 Z" id="Shape" fill="#1D71B8"></path>
                <polygon id="Path" fill="#1D71B8" points="149.32628 31.9658703 152.294539 31.9658703 156.861092 38.8918089 156.861092 31.9658703 159.677133 31.9658703 159.677133 43.6105802 156.708874 43.6105802 152.142321 36.6846416 152.142321 43.6105802 149.32628 43.6105802"></polygon>
                <polygon id="Path" fill="#1D71B8" points="163.634812 34.4774744 161.047099 34.4774744 161.047099 31.9658703 169.190785 31.9658703 169.190785 34.4774744 166.526962 34.4774744 166.526962 43.6105802 163.634812 43.6105802"></polygon>
                <path d="M170.484642,31.9658703 L178.171672,31.9658703 L178.171672,34.4774744 L173.300683,34.4774744 L173.300683,36.6085324 L177.791126,36.6085324 L177.791126,39.1201365 L173.300683,39.1201365 L173.300683,41.2511945 L178.4,41.2511945 L178.4,43.6866894 L170.484642,43.6866894 L170.484642,31.9658703 Z M173.833447,30.2153584 L176.268942,30.2153584 L175.203413,31.7375427 L173.224573,31.7375427 L173.833447,30.2153584 Z" id="Shape" fill="#1D71B8"></path>
            </g>
        </g>
    </g>
</svg>