<?xml version="1.0" encoding="UTF-8"?>
<svg width="111px" height="82px" viewBox="0 0 111 82" version="1.1" xmlns="http://www.w3.org/2000/svg" xmlns:xlink="http://www.w3.org/1999/xlink">
    <title>00534335-1E09-41E0-99D3-84D2400AFB04</title>
    <g id="Artboards" stroke="none" stroke-width="1" fill="none" fill-rule="evenodd">
        <g id="ASSETS" transform="translate(-905.000000, -205.000000)" fill-rule="nonzero">
            <g id="Logo_du_Minist%C3%A8re_des_solidarit%C3%A9s_et_de_la_sant%C3%A9_2020" transform="translate(905.000000, 205.500000)">
                <path d="M29.48,77.8969259 C29.72,77.8969259 29.92,78.0958409 29.84,78.5334539 L28.68,78.8119349 C28.88,78.2947559 29.24,77.8969259 29.48,77.8969259 M30.12,79.7269439 L29.88,79.7269439 C29.6,80.084991 29.28,80.323689 29,80.323689 C28.72,80.323689 28.52,80.124774 28.52,79.7269439 C28.52,79.5678119 28.52,79.3688969 28.56,79.2495479 L30.4,78.6528029 C30.76,77.8173599 30.36,77.4195298 29.8,77.4195298 C28.92,77.4195298 27.92,78.8517179 27.92,80.124774 C27.92,80.721519 28.2,81 28.6,81 C29.16,81 29.68,80.522604 30.12,79.7269439 M29.72,77.0614828 L31,75.8679928 L31,75.7088608 L30.32,75.7088608 L29.52,77.0216998 L29.72,77.0216998 L29.72,77.0614828 Z M25.76,77.8969259 L26.36,77.8969259 L25.36,80.562387 C25.28,80.801085 25.4,81 25.6,81 C26.16,81 27.04,80.443038 27.32,79.7269439 L27.16,79.7269439 C26.92,79.965642 26.4,80.323689 26.04,80.403255 L26.92,77.9367089 L27.8,77.9367089 L27.88,77.5388788 L27,77.5388788 L27.36,76.6238698 L27,76.6238698 L26.36,77.5388788 L25.6,77.6184448 L25.6,77.8571429 L25.76,77.8571429 L25.76,77.8969259 Z M24.96,77.8173599 C25,77.5786618 24.88,77.4195298 24.76,77.4195298 C24.2,77.4195298 23.64,77.8969259 23.32,78.5334539 L23.48,78.5334539 C23.64,78.2947559 23.92,78.0560579 24.24,77.9764919 L23.2,80.60217 C23.12,80.840868 23.28,81 23.4,81 C23.88,81 24.48,80.522604 24.72,79.8860759 L24.56,79.8860759 C24.4,80.124774 24.12,80.363472 23.8,80.443038 L24.96,77.8173599 Z M25.12,76.5045208 C25.36,76.5045208 25.56,76.3056058 25.56,76.0669078 C25.56,75.8282098 25.36,75.6292948 25.12,75.6292948 C24.88,75.6292948 24.68,75.7884268 24.68,76.0271248 C24.68,76.3056058 24.88,76.5045208 25.12,76.5045208 M19.28,80.522604 C19.12,80.801085 19.28,81 19.56,81 C19.76,81 19.8,80.960217 19.92,80.761302 L20.6,78.8915009 C20.96,78.4936709 21.6,78.0560579 21.88,78.0560579 C22.08,78.0560579 22.04,78.2151899 21.92,78.4538879 L20.84,80.522604 C20.76,80.721519 20.88,80.960217 21.08,80.960217 C21.64,80.960217 22.28,80.482821 22.52,79.8462929 L22.36,79.8462929 C22.2,80.084991 21.92,80.323689 21.6,80.403255 L22.52,78.5334539 C22.6,78.2947559 22.72,78.0958409 22.72,77.8969259 C22.72,77.6184448 22.56,77.4195298 22.24,77.4195298 C21.8,77.4195298 21.32,77.8969259 20.76,78.5334539 L20.76,78.0162749 C20.76,77.6582278 20.68,77.3797468 20.32,77.3797468 C20.12,77.3797468 19.92,77.5388788 19.72,77.7775769 L19.72,77.8173599 C20.08,77.8173599 20.2,78.2947559 19.96,78.8517179 L19.28,80.522604 Z M19.28,78.2151899 C19.44,77.7775769 19.32,77.4195298 19,77.4195298 C18.6,77.4195298 18.52,77.6980108 18.12,78.5334539 L18.12,78.0560579 C18.12,77.6980108 18.04,77.4195298 17.68,77.4195298 C17.28,77.4195298 17,78.0162749 16.68,78.5334539 L16.84,78.5334539 C17.04,78.2947559 17.2,78.1356239 17.32,78.1356239 C17.48,78.1356239 17.56,78.3743219 17.32,78.9312839 L16.56,80.522604 C16.4,80.801085 16.56,81 16.84,81 C17.04,81 17.08,80.960217 17.2,80.761302 L17.88,78.8915009 C18.08,78.6528029 18.28,78.4538879 18.48,78.2151899 L19.28,78.2151899 L19.28,78.2151899 Z M15.2,77.8969259 C15.44,77.8969259 15.64,78.0958409 15.56,78.5334539 L14.44,78.7721519 C14.6,78.2947559 14.92,77.8969259 15.2,77.8969259 M15.84,79.7269439 L15.6,79.7269439 C15.32,80.084991 15,80.323689 14.72,80.323689 C14.44,80.323689 14.24,80.124774 14.24,79.7269439 C14.24,79.5678119 14.24,79.3688969 14.28,79.2495479 L16.12,78.6528029 C16.48,77.8173599 16.08,77.4195298 15.52,77.4195298 C14.64,77.4195298 13.64,78.8517179 13.64,80.124774 C13.64,80.721519 13.92,81 14.32,81 C14.88,81 15.4,80.522604 15.84,79.7269439 M11.48,77.8969259 L12.08,77.8969259 L11.08,80.562387 C11,80.801085 11.12,81 11.32,81 C11.88,81 12.76,80.443038 13.04,79.7269439 L12.88,79.7269439 C12.64,79.965642 12.12,80.323689 11.76,80.403255 L12.64,77.9367089 L13.52,77.9367089 L13.6,77.5388788 L12.72,77.5388788 L13.08,76.6238698 L12.84,76.6238698 L12.2,77.5388788 L11.44,77.6184448 L11.44,77.8969259 L11.48,77.8969259 Z M8.16,79.965642 C8.16,79.1301989 9.04,78.0560579 9.6,78.0560579 C9.68,78.0560579 9.8,78.0560579 9.88,78.0958409 L9.32,79.5280289 C9.04,79.925859 8.52,80.363472 8.32,80.363472 C8.2,80.323689 8.16,80.244123 8.16,79.965642 M10.92,77.2603978 L10.64,77.2603978 L10.36,77.5388788 L10.28,77.5388788 C8.76,77.5388788 7.48,79.2097649 7.48,80.443038 C7.48,80.801085 7.68,81 8.04,81 C8.44,81 8.84,80.443038 9.24,79.8860759 L9.24,80.084991 C9.2,80.681736 9.4,81 9.68,81 C10.08,81 10.36,80.403255 10.68,79.8860759 L10.52,79.8860759 C10.32,80.124774 10.16,80.283906 10.04,80.283906 C9.88,80.283906 9.8,80.045208 10.04,79.4882459 L10.92,77.2603978 Z M7.72,78.2151899 C7.88,77.7775769 7.76,77.4195298 7.44,77.4195298 C7.04,77.4195298 6.96,77.6980108 6.56,78.5334539 L6.56,78.0560579 C6.56,77.6980108 6.48,77.4195298 6.12,77.4195298 C5.72,77.4195298 5.44,78.0162749 5.12,78.5334539 L5.28,78.5334539 C5.48,78.2947559 5.64,78.1356239 5.76,78.1356239 C5.88,78.1356239 6,78.3743219 5.76,78.9312839 L5,80.522604 C4.84,80.801085 5,81 5.28,81 C5.48,81 5.52,80.960217 5.64,80.761302 L6.32,78.8915009 C6.52,78.6528029 6.72,78.4538879 6.92,78.2151899 L7.72,78.2151899 L7.72,78.2151899 Z M2.64,80.880651 L2.68,80.681736 C1.8,80.522604 1.68,80.522604 2.04,79.5678119 L2.4,78.5732369 L3.4,78.5732369 C3.84,78.5732369 3.84,78.7721519 3.8,79.2097649 L4.04,79.2097649 L4.64,77.6184448 L4.4,77.6184448 C4.2,78.0162749 4,78.2549729 3.52,78.2549729 L2.6,78.2549729 L3.08,76.8625678 C3.24,76.4249548 3.32,76.3056058 3.92,76.3056058 L4.36,76.3056058 C4.96,76.3056058 5.04,76.4647378 5.04,77.1012658 L5.28,77.1012658 L5.48,76.0271248 L1.84,76.0271248 L1.8,76.2260398 C2.48,76.3851718 2.6,76.4249548 2.24,77.3399638 L1.44,79.4882459 C1.08,80.363472 0.96,80.482821 0.16,80.60217 L0.08,80.801085 L2.64,80.801085 L2.64,80.880651 Z M20.56,69.6618445 C20.8,69.6618445 21,69.8607595 20.92,70.2983725 L19.8,70.5370705 C19.96,70.0596745 20.32,69.6618445 20.56,69.6618445 M21.2,71.4918626 L20.96,71.4918626 C20.68,71.8499096 20.36,72.0886076 20.08,72.0886076 C19.8,72.0886076 19.6,71.8896926 19.6,71.4918626 C19.6,71.3327306 19.6,71.1338156 19.64,71.0144665 L21.48,70.4177215 C21.84,69.5822785 21.44,69.1844485 20.88,69.1844485 C20,69.1844485 19,70.6166365 19,71.8896926 C19,72.4864376 19.28,72.7649186 19.68,72.7649186 C20.28,72.7649186 20.76,72.2477396 21.2,71.4918626 M20.88,68.8264014 L22.16,67.6329114 L22.16,67.4737794 L21.48,67.4737794 L20.68,68.7866184 L20.88,68.7866184 L20.88,68.8264014 Z M16.88,69.6618445 L17.48,69.6618445 L16.48,72.3273056 C16.4,72.5660036 16.52,72.7649186 16.72,72.7649186 C17.28,72.7649186 18.16,72.2079566 18.44,71.4918626 L18.28,71.4918626 C18.04,71.7305606 17.52,72.0886076 17.16,72.1681736 L18.04,69.7016275 L18.92,69.7016275 L19,69.3037975 L18.28,69.3037975 L18.64,68.3887884 L18.28,68.3887884 L17.64,69.3037975 L16.88,69.3833635 L16.88,69.6220615 L16.88,69.6220615 L16.88,69.6618445 Z M16.08,69.5424955 C16.12,69.3037975 16,69.1446655 15.88,69.1446655 C15.32,69.1446655 14.76,69.6220615 14.44,70.2585895 L14.6,70.2585895 C14.76,70.0198915 15.04,69.7811935 15.36,69.7016275 L14.32,72.3273056 C14.24,72.5660036 14.4,72.7251356 14.52,72.7251356 C15,72.7251356 15.6,72.2477396 15.84,71.6112116 L15.68,71.6112116 C15.52,71.8499096 15.24,72.0886076 14.92,72.1681736 L16.08,69.5424955 Z M16.24,68.2296564 C16.48,68.2296564 16.68,68.0307414 16.68,67.7920434 C16.68,67.5533454 16.48,67.3544304 16.24,67.3544304 C16,67.3544304 15.8,67.5533454 15.8,67.7920434 C15.84,68.0307414 15.96,68.2296564 16.24,68.2296564 M12.72,72.1681736 L14.56,67.3544304 L14.52,67.3146474 L13.4,67.4737794 L13.4,67.6329114 L13.64,67.7920434 C13.84,67.9511754 13.8,68.0705244 13.6,68.5877034 L12.16,72.3670886 C12.08,72.5660036 12.2,72.8047016 12.4,72.8047016 C12.96,72.8047016 13.48,72.3273056 13.72,71.6907776 L13.56,71.6907776 C13.36,71.8499096 13,72.1283906 12.72,72.1681736 M9.2,71.7305606 C9.2,70.8951175 10.08,69.8209765 10.64,69.8209765 C10.72,69.8209765 10.84,69.8209765 10.92,69.8607595 L10.36,71.2929476 C10.08,71.6907776 9.56,72.1283906 9.36,72.1283906 C9.24,72.0488246 9.2,71.9692586 9.2,71.7305606 M11.96,69.0253165 L11.68,69.0253165 L11.4,69.3037975 L11.36,69.3037975 C9.84,69.3037975 8.56,70.9746835 8.56,72.2079566 C8.56,72.5660036 8.76,72.7649186 9.12,72.7649186 C9.52,72.7649186 9.92,72.2079566 10.32,71.6509946 L10.32,71.8499096 C10.28,72.4466546 10.48,72.7649186 10.76,72.7649186 C11.16,72.7649186 11.44,72.1681736 11.76,71.6509946 L11.6,71.6509946 C11.4,71.8896926 11.24,72.0488246 11.12,72.0488246 C11,72.0488246 10.88,71.8101266 11.12,71.2531646 L11.96,69.0253165 Z M5.24,73.4014467 C5.24,73.0433996 5.6,72.8047016 6.08,72.6455696 C6.24,72.7251356 6.48,72.8047016 6.76,72.9240506 C7.24,73.0831826 7.44,73.1627486 7.44,73.3218807 C7.44,73.6799277 6.88,73.9186257 6.16,73.9186257 C5.56,73.8390597 5.24,73.7197107 5.24,73.4014467 M6.56,71.2929476 C6.36,71.2929476 6.28,71.0940325 6.28,70.8951175 C6.28,70.2983725 6.56,69.4231465 7.12,69.4231465 C7.32,69.4231465 7.4,69.6220615 7.4,69.8209765 C7.4,70.3779385 7.12,71.2929476 6.56,71.2929476 M8.08,73.0433996 C8.08,72.6057866 7.68,72.4466546 7.08,72.2875226 C6.52,72.1283906 6.28,72.0886076 6.28,71.8896926 C6.28,71.7305606 6.36,71.6112116 6.64,71.4520796 C7.52,71.4122966 8.08,70.6166365 8.08,69.9801085 C8.08,69.8209765 8.04,69.7414105 8.04,69.6220615 L8.8,69.6220615 L8.88,69.2242315 L7.68,69.2242315 C7.52,69.1446655 7.4,69.0650995 7.2,69.0650995 C6.28,69.0650995 5.68,69.8607595 5.68,70.5370705 C5.68,71.0144665 5.96,71.3327306 6.36,71.4122966 C5.92,71.6112116 5.68,71.8101266 5.68,72.0886076 C5.68,72.2477396 5.72,72.3273056 5.88,72.4466546 C4.88,72.7251356 4.48,73.0831826 4.48,73.5207957 C4.48,73.9584087 5.08,74.1573237 5.8,74.1573237 C7.04,74.2766727 8.08,73.6401447 8.08,73.0433996 M3.4,70.2585895 C3.84,70.2585895 3.84,70.4575045 3.8,70.8951175 L4.04,70.8951175 L4.64,69.3037975 L4.36,69.3037975 C4.16,69.7016275 3.96,69.9403255 3.48,69.9403255 L2.56,69.9403255 L3.04,68.6274864 C3.2,68.1898734 3.28,68.0705244 3.88,68.0705244 L4.32,68.0705244 C4.92,68.0705244 5,68.2296564 5,68.8661844 L5.24,68.8661844 L5.44,67.7920434 L1.8,67.7920434 L1.76,67.9909584 C2.44,68.1500904 2.56,68.1898734 2.2,69.1048825 L1.36,71.2531646 C1,72.1283906 0.88,72.2477396 0.08,72.3670886 L0.04,72.5660036 L4.08,72.5660036 L4.84,71.4520796 L4.6,71.4520796 C4.16,71.8896926 3.56,72.2875226 2.72,72.2875226 C1.64,72.2875226 1.72,72.2477396 2.08,71.2531646 L2.48,70.2188065 L3.4,70.2585895 L3.4,70.2585895 Z M3.96,67.4737794 L5.24,66.5985533 L5.24,66.4394213 L4.44,66.4394213 L3.76,67.4737794 L3.96,67.4737794 Z M20.16,61.3869801 C20.4,61.3869801 20.6,61.5858951 20.52,62.0235081 L19.4,62.2622061 C19.52,61.7848101 19.88,61.3869801 20.16,61.3869801 M20.76,63.2169982 L20.52,63.2169982 C20.24,63.5750452 19.92,63.8137432 19.64,63.8137432 C19.36,63.8137432 19.16,63.6148282 19.16,63.2169982 C19.16,63.0180832 19.16,62.8589512 19.2,62.7396022 L21.04,62.1428571 C21.4,61.3074141 21,60.9095841 20.44,60.9095841 C19.56,60.9095841 18.56,62.3417722 18.56,63.6148282 C18.56,64.2115732 18.84,64.4900542 19.24,64.4900542 C19.84,64.4900542 20.36,64.0126582 20.76,63.2169982 M20.44,60.5515371 L21.72,59.358047 L21.72,59.198915 L21.04,59.198915 L20.24,60.5117541 L20.44,60.5117541 L20.44,60.5515371 Z M16.6,61.3869801 L17.08,61.3869801 L16.08,64.0524412 C16,64.2911392 16.12,64.4900542 16.32,64.4900542 C16.88,64.4900542 17.76,63.9330922 18.04,63.2169982 L17.88,63.2169982 C17.64,63.4556962 17.2,63.8137432 16.76,63.8933092 L17.64,61.4267631 L18.52,61.4267631 L18.6,61.0289331 L17.72,61.0289331 L18.08,60.1139241 L17.72,60.1139241 L17.08,61.0289331 L16.44,61.1084991 L16.44,61.3471971 L16.6,61.3471971 L16.6,61.3869801 Z M16.12,61.7052441 C16.28,61.2676311 16.16,60.9095841 15.84,60.9095841 C15.44,60.9095841 15.36,61.1880651 14.96,62.0235081 L14.96,61.5461121 C14.96,61.1880651 14.88,60.9095841 14.52,60.9095841 C14.12,60.9095841 13.84,61.5063291 13.52,62.0235081 L13.68,62.0235081 C13.88,61.7848101 14.04,61.6256781 14.16,61.6256781 C14.32,61.6256781 14.4,61.8643761 14.16,62.4213382 L13.48,64.0126582 C13.32,64.2911392 13.48,64.4900542 13.76,64.4900542 C13.96,64.4900542 14,64.4502712 14.12,64.2513562 L14.88,62.4213382 C15.08,62.1826401 15.28,61.9837251 15.48,61.7450271 L16.16,61.7450271 L16.16,61.7052441 L16.12,61.7052441 Z M12.08,61.3869801 C12.32,61.3869801 12.52,61.5858951 12.44,62.0235081 L11.32,62.2622061 C11.48,61.7848101 11.76,61.3869801 12.08,61.3869801 M12.72,63.2169982 L12.48,63.2169982 C12.2,63.5750452 11.88,63.8137432 11.6,63.8137432 C11.32,63.8137432 11.12,63.6148282 11.12,63.2169982 C11.12,63.0180832 11.12,62.8589512 11.16,62.7396022 L13,62.1428571 C13.36,61.3074141 12.96,60.9095841 12.4,60.9095841 C11.52,60.9095841 10.52,62.3417722 10.52,63.6148282 C10.52,64.2115732 10.8,64.4900542 11.2,64.4900542 C11.76,64.4900542 12.28,64.0126582 12.72,63.2169982 M8.16,63.9330922 C7.96,63.9330922 7.72,63.7739602 7.72,63.6546112 C7.72,63.6148282 7.8,63.4159132 7.92,63.1772152 L8.2,62.3815552 C8.48,61.9837251 9,61.5858951 9.28,61.5858951 C9.44,61.5858951 9.56,61.6654611 9.56,61.9439421 C9.6,62.6600362 8.92,63.9330922 8.16,63.9330922 M10.28,61.6256781 C10.28,61.0687161 10.08,60.8698011 9.68,60.8698011 C9.24,60.8698011 8.8,61.3471971 8.36,61.9439421 L9.44,59.039783 L9.4,59 L8.28,59.159132 L8.28,59.318264 L8.52,59.477396 C8.72,59.636528 8.68,59.835443 8.48,60.2730561 L7.28,63.3363472 C7.2,63.5750452 7.08,63.8137432 7.08,63.8933092 C7.08,64.1717902 7.52,64.4900542 7.92,64.4900542 C8.76,64.4900542 10.28,62.8589512 10.28,61.6256781 M6.68,61.3074141 C6.72,61.0687161 6.6,60.9095841 6.48,60.9095841 C5.92,60.9095841 5.36,61.3869801 5.04,62.0235081 L5.2,62.0235081 C5.36,61.7848101 5.64,61.5461121 5.96,61.4665461 L4.92,64.0922242 C4.84,64.3309222 5,64.4900542 5.12,64.4900542 C5.6,64.4900542 6.2,64.0126582 6.44,63.3761302 L6.28,63.3761302 C6.12,63.6148282 5.84,63.8535262 5.52,63.9330922 L6.68,61.3074141 Z M6.84,59.954792 C7.08,59.954792 7.28,59.755877 7.28,59.517179 C7.28,59.278481 7.08,59.079566 6.84,59.079566 C6.6,59.079566 6.4,59.278481 6.4,59.517179 C6.44,59.755877 6.56,59.954792 6.84,59.954792 M4.16,59.517179 L1.72,59.517179 L1.68,59.716094 C2.36,59.875226 2.48,59.915009 2.12,60.8300181 L1.32,62.9783002 C0.96,63.8535262 0.84,63.9728752 0.04,64.0922242 L0,64.2911392 L3.64,64.2911392 L4.44,62.8589512 L4.2,62.8589512 C3.76,63.3363472 3.2,63.9728752 2.4,63.9728752 C1.8,63.9728752 1.72,63.8933092 2.04,62.9385172 L2.84,60.7902351 C3.2,59.915009 3.32,59.79566 4.12,59.676311 L4.12,59.517179 L4.16,59.517179 Z" id="DEVISE_REPUBLICAINE" fill="#000000"></path>
                <path d="M13.5609078,10.6711409 C13.7117332,10.5100671 13.787146,10.4295302 13.9379714,10.2684564 L13.9379714,10.2684564 C14.1642096,9.98657718 14.3904478,9.70469799 14.6543924,9.46308725 C14.7298051,9.38255034 14.8052178,9.30201342 14.8806306,9.26174497 C14.8806306,9.26174497 14.8806306,9.22147651 14.9183369,9.18120805 C14.8429242,9.22147651 14.7298051,9.34228188 14.6543924,9.38255034 C14.6543924,9.38255034 14.616686,9.38255034 14.6543924,9.34228188 C14.7298051,9.30201342 14.8052178,9.26174497 14.8806306,9.1409396 L14.8806306,9.1409396 C14.8806306,9.1409396 14.8806306,9.1409396 14.8806306,9.10067114 C14.616686,9.06040268 14.3527414,9.26174497 14.1642096,9.46308725 C14.1265032,9.46308725 14.0887969,9.46308725 14.0887969,9.46308725 C13.7494396,9.54362416 13.5232014,9.86577181 13.2215505,10.0268456 L13.2215505,9.98657718 C13.070725,10.0268456 12.9953123,10.147651 12.8444868,10.147651 C12.655955,10.1879195 12.4674231,10.147651 12.3165977,10.147651 C12.0526531,10.1879195 11.7887085,10.2281879 11.524764,10.3087248 L11.524764,10.3087248 C11.3739385,10.3489933 11.2608194,10.3892617 11.1099939,10.4697987 L11.1099939,10.4697987 C11.1099939,10.4697987 11.1099939,10.5100671 11.0722876,10.5100671 C11.0345812,10.5503356 10.9968748,10.590604 10.9214621,10.6711409 C10.7706366,10.7114094 10.6952239,10.8724832 10.5443984,10.9530201 C10.5443984,10.9530201 10.5443984,10.9530201 10.5066921,10.9530201 C10.4312793,11.033557 10.2804539,11.1946309 10.1673348,11.3154362 L10.1296284,11.3154362 L10.1296284,11.3154362 L10.1296284,11.3154362 C10.1296284,11.2751678 10.1673348,11.2751678 10.1673348,11.2348993 C10.1673348,11.1946309 10.2050411,11.1946309 10.2050411,11.1543624 C10.2427475,11.114094 10.2427475,11.0738255 10.2804539,10.9932886 C10.2804539,10.9932886 10.2804539,10.9932886 10.2804539,10.9530201 C10.2804539,10.9530201 10.2804539,10.9530201 10.2427475,10.9530201 C10.3181602,10.8724832 10.4689857,10.7516779 10.6198112,10.6711409 L10.6198112,10.6711409 L10.5821048,10.6711409 L10.6198112,10.6308725 L10.6198112,10.6308725 L10.6198112,10.6308725 C10.5821048,10.6308725 10.5443984,10.6711409 10.5443984,10.7114094 C10.5066921,10.7516779 10.4689857,10.8724832 10.3558666,10.8724832 C10.3558666,10.8724832 10.3558666,10.8724832 10.3181602,10.8724832 L10.3181602,10.8724832 L10.3181602,10.8724832 L10.3181602,10.8724832 L10.3181602,10.8724832 L10.3181602,10.8724832 L10.3181602,10.8724832 L10.3181602,10.8724832 C10.3181602,10.8724832 10.3181602,10.8724832 10.3181602,10.8322148 L10.3181602,10.8322148 C10.3181602,10.8322148 10.3181602,10.7919463 10.3558666,10.7919463 L10.3558666,10.7919463 L10.3558666,10.590604 L10.3558666,10.5503356 C10.393573,10.5100671 10.4312793,10.4697987 10.5066921,10.3892617 L10.5066921,10.3892617 C10.5821048,10.3489933 10.6952239,10.3087248 10.7329303,10.2281879 C10.7329303,10.2281879 10.7706366,10.2281879 10.7706366,10.1879195 C10.6198112,10.2281879 10.5443984,10.2684564 10.4312793,10.3892617 L10.393573,10.3892617 L10.3558666,10.3892617 L10.3558666,10.3892617 C10.3558666,10.3489933 10.4312793,10.3489933 10.5066921,10.3087248 L10.5443984,10.3087248 C11.2608194,9.74496644 12.1657722,9.86577181 12.9576059,9.54362416 C12.9953123,9.5033557 13.1084314,9.46308725 13.1461377,9.38255034 C13.2215505,9.34228188 13.3346696,9.22147651 13.485495,9.1409396 C13.6740269,8.97986577 13.7494396,8.8590604 13.8625587,8.57718121 L13.8625587,8.53691275 C13.5986141,8.81879195 13.2592568,9.10067114 12.9198995,9.30201342 C12.4674231,9.54362416 11.9772404,9.5033557 11.524764,9.58389262 C11.524764,9.54362416 11.5624703,9.54362416 11.6001767,9.54362416 C11.6001767,9.5033557 11.6378831,9.46308725 11.6755894,9.38255034 L11.7132958,9.38255034 C11.7132958,9.38255034 11.7132958,9.34228188 11.7510022,9.34228188 C11.7887085,9.34228188 11.8264149,9.34228188 11.8264149,9.34228188 C11.7887085,9.26174497 11.6378831,9.38255034 11.5624703,9.34228188 C11.6001767,9.30201342 11.5624703,9.26174497 11.6001767,9.18120805 L11.6755894,9.18120805 C11.6755894,9.1409396 11.7132958,9.10067114 11.7132958,9.10067114 C12.0526531,8.89932886 12.3165977,8.73825503 12.655955,8.53691275 C12.6182486,8.53691275 12.5805422,8.57718121 12.4674231,8.53691275 C12.5051295,8.53691275 12.4674231,8.4966443 12.5051295,8.4966443 C12.7313677,8.45637584 12.9198995,8.29530201 13.1461377,8.2147651 C13.070725,8.2147651 12.9953123,8.25503356 12.9198995,8.2147651 C12.9576059,8.2147651 12.9576059,8.17449664 13.070725,8.17449664 L13.070725,8.13422819 C13.070725,8.13422819 13.070725,8.13422819 13.1084314,8.13422819 L13.070725,8.13422819 C13.070725,8.09395973 13.1461377,8.13422819 13.2215505,8.09395973 L13.1838441,8.09395973 C13.2215505,8.01342282 13.3723759,8.01342282 13.4477887,7.93288591 C13.4477887,7.89261745 13.3723759,7.93288591 13.3723759,7.89261745 C13.3723759,7.89261745 13.3723759,7.89261745 13.4100823,7.89261745 L13.3723759,7.89261745 C13.3346696,7.89261745 13.3723759,7.85234899 13.3723759,7.81208054 C13.5232014,7.65100671 13.5232014,7.44966443 13.5609078,7.24832215 L13.5232014,7.24832215 C13.2969632,7.48993289 12.9576059,7.61073826 12.655955,7.69127517 L12.5805422,7.69127517 C12.5051295,7.73154362 12.3165977,7.73154362 12.2034786,7.69127517 C12.1280658,7.65100671 12.0526531,7.61073826 11.9772404,7.48993289 C11.7887085,7.40939597 11.6378831,7.2885906 11.4493512,7.20805369 C10.9214621,7.00671141 10.393573,6.9261745 9.82797748,6.96644295 C10.0542157,6.80536913 10.3558666,6.80536913 10.5821048,6.72483221 C10.9591685,6.6442953 11.2985258,6.48322148 11.6378831,6.48322148 C11.6001767,6.48322148 11.4870576,6.48322148 11.4116449,6.48322148 C11.1477003,6.48322148 10.808343,6.52348993 10.4689857,6.6442953 C10.2427475,6.68456376 10.0542157,6.80536913 9.86568385,6.84563758 C9.71485838,6.88590604 9.67715201,7.04697987 9.52632655,7.00671141 L9.52632655,6.96644295 C9.75256475,6.68456376 9.97880294,6.40268456 10.3181602,6.40268456 C10.6952239,6.36241611 11.0722876,6.40268456 11.4493512,6.44295302 C11.7132958,6.44295302 11.9772404,6.52348993 12.2411849,6.60402685 C12.3165977,6.60402685 12.3920104,6.80536913 12.4674231,6.80536913 C12.6182486,6.84563758 12.7313677,6.80536913 12.8444868,6.88590604 C12.8444868,6.84563758 12.8444868,6.80536913 12.8444868,6.72483221 C12.9198995,6.6442953 13.0330186,6.72483221 13.1084314,6.72483221 C13.2969632,6.6442953 12.9576059,6.44295302 12.8821932,6.24161074 L12.8821932,6.20134228 C13.070725,6.36241611 13.1461377,6.56375839 13.4100823,6.6442953 C13.485495,6.68456376 13.787146,6.72483221 13.7494396,6.6442953 C13.6740269,6.40268456 13.4100823,6.20134228 13.2215505,5.95973154 L13.2215505,5.75838926 C13.1838441,5.75838926 13.1838441,5.75838926 13.1838441,5.71812081 L13.1838441,5.63758389 C13.1084314,5.59731544 13.1461377,5.47651007 13.1084314,5.43624161 C13.070725,5.3557047 13.1084314,5.15436242 13.070725,5.03355705 C13.0330186,4.87248322 13.0330186,4.79194631 12.9953123,4.63087248 C12.9576059,4.22818792 12.8444868,3.86577181 12.8067804,3.54362416 C12.7690741,3.10067114 13.0330186,2.73825503 13.2215505,2.41610738 C13.3723759,2.13422819 13.5609078,1.85234899 13.8248523,1.65100671 C13.8625587,1.36912752 14.0510905,1.16778523 14.2396223,0.88590604 C14.4281542,0.684563758 14.6920987,0.523489933 14.8806306,0.44295302 C15.1445751,0.0805369128 15.4085197,0 15.4085197,0 L19.7070455,0 C19.7070455,0 19.7070455,0 19.7824582,0.0402684564 C19.8578709,0.0805369128 20.0086964,0.201342282 20.1218155,0.241610738 C20.272641,0.322147651 20.4611728,0.44295302 20.5365855,0.604026846 C20.5742919,0.644295302 20.6119983,0.805369128 20.5742919,0.88590604 C20.5365855,0.966442953 20.5365855,1.16778523 20.3857601,1.24832215 C20.2349346,1.2885906 20.1218155,1.2885906 19.9332837,1.2885906 C19.8578709,1.2885906 19.7447518,1.2885906 19.6693391,1.24832215 C20.0086964,1.40939597 20.272641,1.53020134 20.4988792,1.85234899 C20.4988792,1.89261745 20.5742919,1.89261745 20.687411,1.89261745 L20.687411,1.93288591 C20.6497046,1.97315436 20.6119983,1.97315436 20.6497046,2.09395973 L20.8005301,2.09395973 C20.8759428,2.05369128 20.8759428,1.81208054 21.0267683,1.89261745 C21.102181,1.93288591 21.1775938,2.13422819 21.102181,2.25503356 C21.0267683,2.33557047 20.9136492,2.41610738 20.8382365,2.4966443 C20.8382365,2.53691275 20.8382365,2.57718121 20.8382365,2.65771812 C20.8759428,2.73825503 20.9136492,2.8590604 20.9136492,2.93959732 C20.9513556,3.10067114 20.9890619,3.30201342 21.0644747,3.42281879 C21.2153001,3.7852349 21.2907129,4.10738255 21.2530065,4.46979866 C21.2530065,4.67114094 21.1775938,4.83221477 21.2530065,5.03355705 C21.2907129,5.23489933 21.403832,5.31543624 21.4792447,5.51677852 C21.5546574,5.67785235 21.6677765,5.75838926 21.7054829,5.87919463 C21.8563084,6.12080537 22.0825466,6.32214765 21.9694275,6.6442953 C21.9317211,6.80536913 21.7054829,6.80536913 21.5169511,6.88590604 C21.3661256,6.96644295 21.5169511,7.16778523 21.5546574,7.2885906 C21.6300702,7.48993289 21.403832,7.65100671 21.2907129,7.69127517 C21.3284192,7.73154362 21.4415383,7.73154362 21.4415383,7.77181208 C21.4415383,7.85234899 21.5923638,7.97315436 21.4792447,8.05369128 C21.403832,8.2147651 21.1398874,8.25503356 21.2530065,8.45637584 C21.3284192,8.61744966 21.2907129,8.81879195 21.2530065,8.93959732 C21.2153001,9.1409396 21.0267683,9.22147651 20.8759428,9.30201342 C20.7251174,9.34228188 20.6119983,9.34228188 20.4611728,9.30201342 C20.4234664,9.30201342 20.3857601,9.26174497 20.3103473,9.26174497 C19.9332837,9.22147651 19.55622,9.10067114 19.2545691,9.10067114 C19.1791563,9.10067114 19.0283309,9.1409396 18.9906245,9.18120805 C18.9152118,9.26174497 18.8020927,9.34228188 18.7266799,9.42281879 L18.7266799,9.42281879 L18.6889736,9.46308725 C18.6889736,9.46308725 18.6889736,9.46308725 18.6512672,9.5033557 L18.6512672,9.5033557 C18.6135608,9.58389262 18.5004417,9.66442953 18.4627354,9.74496644 L18.4627354,9.74496644 C18.4627354,9.74496644 18.4627354,9.74496644 18.4627354,9.7852349 C18.3873226,9.94630872 18.3119099,10.0671141 18.3119099,10.1879195 C18.1610845,10.7516779 18.2364972,11.1946309 18.3119099,11.2751678 C18.3496163,11.3154362 19.0283309,11.5167785 19.4808073,11.7583893 C19.7070455,11.8389262 19.8578709,11.9597315 20.0086964,12 L11.1099939,12 C11.524764,11.7181208 11.9018276,11.557047 12.5051295,11.2348993 C12.7690741,11.1946309 13.3723759,10.8724832 13.5609078,10.6711409 M10.3181602,9.06040268 C10.2804539,9.06040268 10.1673348,9.06040268 10.2427475,9.06040268 C10.2427475,8.97986577 10.4312793,8.97986577 10.5066921,8.89932886 C10.5443984,8.89932886 10.5821048,8.8590604 10.6575175,8.8590604 C10.6952239,8.89932886 10.7329303,8.89932886 10.808343,8.93959732 C10.6198112,9.06040268 10.4312793,8.93959732 10.3181602,9.06040268 M7,8.4966443 L7,8.4966443 C7.26394456,8.05369128 7.4524764,7.69127517 7.64100823,7.2885906 C7.90495279,7.12751678 8.16889736,6.88590604 8.39513556,6.6442953 C8.77219922,6.24161074 9.14926288,5.83892617 9.60173928,5.63758389 C9.79027111,5.59731544 9.97880294,5.59731544 10.1673348,5.63758389 C10.1296284,5.71812081 9.97880294,5.67785235 9.90339021,5.79865772 L9.86568385,5.79865772 L9.86568385,5.75838926 C9.63944565,6 9.33779472,6.12080537 9.14926288,6.40268456 C8.99843742,6.6442953 8.92302469,6.96644295 8.62137375,7.00671141 C8.54596102,7.00671141 8.62137375,6.96644295 8.62137375,6.96644295 C8.01807189,7.40939597 7.5655955,7.89261745 7,8.4966443 M8.80990559,7.00671141 C8.80990559,7.04697987 8.77219922,7.04697987 8.77219922,7.08724832 C8.77219922,7.12751678 8.73449285,7.12751678 8.69678649,7.16778523 L8.65908012,7.16778523 C8.62137375,7.08724832 8.65908012,7.00671141 8.80990559,7.00671141 C8.80990559,6.96644295 8.80990559,7.00671141 8.80990559,7.00671141 M9.79027111,10.4295302 C9.79027111,10.4697987 9.75256475,10.4697987 9.75256475,10.4697987 C9.79027111,10.4697987 9.79027111,10.4697987 9.79027111,10.5100671 C9.75256475,10.5503356 9.71485838,10.590604 9.63944565,10.590604 C9.63944565,10.590604 9.63944565,10.590604 9.60173928,10.590604 C9.56403291,10.6308725 9.56403291,10.6308725 9.52632655,10.6711409 C9.48862018,10.6711409 9.37550108,10.6711409 9.45091382,10.6308725 C9.48862018,10.590604 9.52632655,10.5503356 9.60173928,10.4697987 C9.63944565,10.4295302 9.63944565,10.4295302 9.67715201,10.3892617 L9.71485838,10.3489933 C9.71485838,10.3892617 9.79027111,10.3892617 9.79027111,10.4295302 M9.41320745,10.2281879 L9.41320745,10.2281879 C9.33779472,10.2684564 9.22467562,10.3892617 9.18696925,10.4295302 C9.11155652,10.4697987 8.99843742,10.5100671 8.92302469,10.590604 L8.92302469,10.590604 C8.92302469,10.590604 8.92302469,10.590604 8.88531832,10.590604 C8.80990559,10.6308725 8.73449285,10.6711409 8.65908012,10.7919463 C8.65908012,10.7919463 8.65908012,10.7919463 8.62137375,10.8322148 L8.62137375,10.8322148 L8.62137375,10.8322148 C8.62137375,10.8322148 8.62137375,10.8322148 8.58366739,10.8724832 L8.58366739,10.8724832 L8.58366739,10.8724832 L8.50825466,10.9530201 C8.50825466,10.9530201 8.50825466,10.9530201 8.47054829,10.9932886 L8.43284192,10.9932886 L8.43284192,10.9932886 L8.39513556,10.9932886 C8.39513556,10.9932886 8.39513556,10.9932886 8.35742919,10.9932886 L8.35742919,10.9932886 L8.35742919,10.9932886 C8.31972282,10.9932886 8.31972282,11.033557 8.28201646,11.033557 C8.24431009,11.0738255 8.20660372,11.114094 8.13119099,11.1946309 L8.13119099,11.1946309 L8.13119099,11.1946309 L8.13119099,11.1946309 L8.13119099,11.1946309 L8.13119099,11.1946309 L8.13119099,11.1946309 L8.13119099,11.1946309 L8.13119099,11.1946309 L8.13119099,11.1946309 L8.13119099,11.1946309 C8.13119099,11.1946309 8.13119099,11.1946309 8.13119099,11.1543624 L8.13119099,11.1543624 L8.13119099,11.1543624 C8.13119099,11.114094 8.16889736,11.114094 8.16889736,11.0738255 L8.16889736,11.0738255 C8.16889736,11.0738255 8.16889736,11.0738255 8.16889736,11.033557 L8.20660372,10.9932886 L8.20660372,10.9932886 C8.24431009,10.9530201 8.24431009,10.9530201 8.24431009,10.9127517 L8.24431009,10.9127517 L8.24431009,10.9127517 C8.24431009,10.9127517 8.24431009,10.8724832 8.28201646,10.8724832 C8.28201646,10.8724832 8.28201646,10.8322148 8.31972282,10.8322148 L8.31972282,10.8322148 L8.31972282,10.8322148 L8.31972282,10.8322148 L8.31972282,10.7919463 L8.31972282,10.7919463 L8.31972282,10.7919463 C8.31972282,10.7919463 8.31972282,10.7919463 8.31972282,10.7516779 L8.31972282,10.7516779 C8.31972282,10.7516779 8.31972282,10.7516779 8.31972282,10.7114094 L8.31972282,10.7114094 C8.35742919,10.6711409 8.35742919,10.6308725 8.39513556,10.6308725 L8.39513556,10.6308725 C8.35742919,10.6308725 8.35742919,10.6711409 8.31972282,10.6711409 C8.31972282,10.6711409 8.28201646,10.6711409 8.28201646,10.6308725 L8.31972282,10.590604 L8.31972282,10.590604 C8.35742919,10.5503356 8.35742919,10.5100671 8.39513556,10.5100671 C8.43284192,10.5100671 8.43284192,10.4697987 8.43284192,10.4697987 L8.43284192,10.4697987 L8.47054829,10.4295302 L8.47054829,10.4295302 C8.65908012,10.2281879 9.03614379,10.2281879 9.30008835,10.0671141 C9.37550108,10.0268456 9.52632655,10.0671141 9.63944565,10.0671141 C9.67715201,10.0671141 9.79027111,10.0671141 9.82797748,10.1073826 C9.75256475,9.98657718 9.56403291,10.147651 9.41320745,10.2281879 M9.82797748,8.65771812 C9.82797748,8.65771812 9.86568385,8.65771812 9.90339021,8.61744966 L9.71485838,8.61744966 C9.71485838,8.61744966 9.71485838,8.61744966 9.71485838,8.57718121 C9.63944565,8.57718121 9.48862018,8.61744966 9.37550108,8.65771812 C9.22467562,8.69798658 9.11155652,8.81879195 8.92302469,8.8590604 C8.69678649,8.93959732 8.50825466,9.1409396 8.20660372,9.26174497 C8.20660372,9.26174497 8.20660372,9.26174497 8.20660372,9.22147651 C8.20660372,9.18120805 8.28201646,9.1409396 8.35742919,9.06040268 L8.35742919,8.97986577 C8.54596102,8.73825503 8.77219922,8.57718121 8.96073105,8.37583893 L8.96073105,8.33557047 C8.99843742,8.25503356 9.14926288,8.17449664 9.18696925,8.09395973 C9.18696925,8.05369128 9.26238198,7.93288591 9.41320745,7.89261745 C9.41320745,7.89261745 9.37550108,7.89261745 9.37550108,7.85234899 C9.30008835,7.85234899 9.18696925,7.89261745 9.11155652,7.85234899 C9.14926288,7.81208054 9.18696925,7.81208054 9.26238198,7.77181208 C9.26238198,7.77181208 9.22467562,7.77181208 9.22467562,7.73154362 C9.22467562,7.69127517 9.26238198,7.65100671 9.30008835,7.65100671 C9.37550108,7.65100671 9.48862018,7.65100671 9.56403291,7.5704698 C9.41320745,7.5704698 9.22467562,7.61073826 9.11155652,7.53020134 C9.18696925,7.24832215 9.37550108,6.96644295 9.67715201,6.84563758 L9.71485838,6.84563758 C9.71485838,6.9261745 9.67715201,7.04697987 9.52632655,7.08724832 C9.71485838,7.12751678 9.86568385,7.12751678 10.0542157,7.24832215 C10.0542157,7.2885906 10.0165093,7.24832215 9.97880294,7.24832215 C10.0542157,7.2885906 10.2050411,7.24832215 10.3181602,7.32885906 C10.2804539,7.36912752 10.1673348,7.32885906 10.1296284,7.32885906 C10.7706366,7.53020134 11.4870576,7.69127517 12.0526531,8.17449664 C11.6001767,8.41610738 11.0722876,8.53691275 10.5443984,8.65771812 C10.5066921,8.65771812 10.4689857,8.65771812 10.3558666,8.65771812 L10.3558666,8.69798658 C10.2804539,8.69798658 10.2050411,8.69798658 10.1296284,8.73825503 C10.0165093,8.69798658 9.94109658,8.73825503 9.82797748,8.65771812" id="Fond_2_" fill="#FFFFFF"></path>
                <path d="M13.1153846,10.6 C13.2692308,10.44 13.3461538,10.36 13.5,10.2 L13.5,10.2 C13.7307692,9.92 13.9615385,9.64 14.2307692,9.4 C14.3076923,9.32 14.3846154,9.24 14.4615385,9.2 C14.4615385,9.2 14.4615385,9.16 14.5,9.12 C14.4230769,9.16 14.3076923,9.28 14.2307692,9.32 C14.2307692,9.32 14.1923077,9.32 14.2307692,9.28 C14.3076923,9.24 14.3846154,9.2 14.4615385,9.08 L14.4615385,9.08 C14.4615385,9.08 14.4615385,9.08 14.4615385,9.04 C14.1923077,9 13.9230769,9.2 13.7307692,9.4 C13.6923077,9.4 13.6538462,9.4 13.6538462,9.4 C13.3076923,9.48 13.0769231,9.8 12.7692308,9.96 L12.7692308,9.92 C12.6153846,9.96 12.5384615,10.08 12.3846154,10.08 C12.1923077,10.12 12,10.08 11.8461538,10.08 C11.5769231,10.12 11.3076923,10.16 11.0384615,10.24 L11.0384615,10.24 C10.8846154,10.28 10.7692308,10.32 10.6153846,10.4 L10.6153846,10.4 C10.6153846,10.4 10.6153846,10.44 10.5769231,10.44 C10.5384615,10.48 10.5,10.52 10.4230769,10.6 C10.2692308,10.64 10.1923077,10.8 10.0384615,10.88 C10.0384615,10.88 10.0384615,10.88 10,10.88 C9.92307692,10.96 9.76923077,11.12 9.65384615,11.24 L9.61538462,11.24 L9.61538462,11.24 L9.61538462,11.24 C9.61538462,11.2 9.65384615,11.2 9.65384615,11.16 C9.65384615,11.12 9.69230769,11.12 9.69230769,11.08 C9.73076923,11.04 9.73076923,11 9.76923077,10.92 C9.76923077,10.92 9.76923077,10.92 9.76923077,10.88 C9.76923077,10.88 9.76923077,10.88 9.73076923,10.88 C9.80769231,10.8 9.96153846,10.68 10.1153846,10.6 L10.1153846,10.6 L10.0769231,10.6 L10.1153846,10.56 L10.1153846,10.56 L10.1153846,10.56 C10.0769231,10.56 10.0384615,10.6 10.0384615,10.64 C10,10.68 9.96153846,10.8 9.84615385,10.8 C9.84615385,10.8 9.84615385,10.8 9.80769231,10.8 L9.80769231,10.8 L9.80769231,10.8 L9.80769231,10.8 L9.80769231,10.8 L9.80769231,10.8 L9.80769231,10.8 L9.80769231,10.8 C9.80769231,10.8 9.80769231,10.8 9.80769231,10.76 L9.80769231,10.76 C9.80769231,10.76 9.80769231,10.72 9.84615385,10.72 L9.84615385,10.72 L9.84615385,10.52 L9.84615385,10.48 C9.88461538,10.44 9.92307692,10.4 10,10.32 L10,10.32 C10.0769231,10.28 10.1923077,10.24 10.2307692,10.16 C10.2307692,10.16 10.2692308,10.16 10.2692308,10.12 C10.1153846,10.16 10.0384615,10.2 9.92307692,10.32 L9.88461538,10.32 L9.84615385,10.32 L9.84615385,10.32 C9.84615385,10.28 9.92307692,10.28 10,10.24 L10.0384615,10.24 C10.7692308,9.68 11.6923077,9.8 12.5,9.48 C12.5384615,9.44 12.6538462,9.4 12.6923077,9.32 C12.7692308,9.28 12.8846154,9.16 13.0384615,9.08 C13.2307692,8.92 13.3076923,8.8 13.4230769,8.52 L13.4230769,8.48 C13.1538462,8.76 12.8076923,9.04 12.4615385,9.24 C12,9.48 11.5,9.44 11.0384615,9.52 C11.0384615,9.48 11.0769231,9.48 11.1153846,9.48 C11.1153846,9.44 11.1538462,9.4 11.1923077,9.32 L11.2307692,9.32 C11.2307692,9.32 11.2307692,9.28 11.2692308,9.28 C11.3076923,9.28 11.3461538,9.28 11.3461538,9.28 C11.3076923,9.2 11.1538462,9.32 11.0769231,9.28 C11.1153846,9.24 11.0769231,9.2 11.1153846,9.12 L11.1923077,9.12 C11.1923077,9.08 11.2307692,9.04 11.2307692,9.04 C11.5769231,8.84 11.8461538,8.68 12.1923077,8.48 C12.1538462,8.48 12.1153846,8.52 12,8.48 C12.0384615,8.48 12,8.44 12.0384615,8.44 C12.2692308,8.4 12.4615385,8.24 12.6923077,8.16 C12.6153846,8.16 12.5384615,8.2 12.4615385,8.16 C12.5,8.16 12.5,8.12 12.6153846,8.12 L12.6153846,8.08 C12.6153846,8.08 12.6153846,8.08 12.6538462,8.08 L12.6153846,8.08 C12.6153846,8.04 12.6923077,8.08 12.7692308,8.04 L12.7307692,8.04 C12.7692308,7.96 12.9230769,7.96 13,7.88 C13,7.84 12.9230769,7.88 12.9230769,7.84 C12.9230769,7.84 12.9230769,7.84 12.9615385,7.84 L12.9230769,7.84 C12.8846154,7.84 12.9230769,7.8 12.9230769,7.76 C13.0769231,7.6 13.0769231,7.4 13.1153846,7.2 L13.0769231,7.2 C12.8461538,7.44 12.5,7.56 12.1923077,7.64 L12.1153846,7.64 C12.0384615,7.68 11.8461538,7.68 11.7307692,7.64 C11.6538462,7.6 11.5769231,7.56 11.5,7.44 C11.3076923,7.36 11.1538462,7.24 10.9615385,7.16 C10.4230769,6.96 9.88461538,6.88 9.30769231,6.92 C9.53846154,6.76 9.84615385,6.76 10.0769231,6.68 C10.4615385,6.6 10.8076923,6.44 11.1538462,6.44 C11.1153846,6.44 11,6.44 10.9230769,6.44 C10.6538462,6.44 10.3076923,6.48 9.96153846,6.6 C9.73076923,6.64 9.53846154,6.76 9.34615385,6.8 C9.19230769,6.84 9.15384615,7 9,6.96 L9,6.92 C9.23076923,6.64 9.46153846,6.36 9.80769231,6.36 C10.1923077,6.32 10.5769231,6.36 10.9615385,6.4 C11.2307692,6.4 11.5,6.48 11.7692308,6.56 C11.8461538,6.56 11.9230769,6.76 12,6.76 C12.1538462,6.8 12.2692308,6.76 12.3846154,6.84 C12.3846154,6.8 12.3846154,6.76 12.3846154,6.68 C12.4615385,6.6 12.5769231,6.68 12.6538462,6.68 C12.8461538,6.6 12.5,6.4 12.4230769,6.2 L12.4230769,6.16 C12.6153846,6.32 12.6923077,6.52 12.9615385,6.6 C13.0384615,6.64 13.3461538,6.68 13.3076923,6.6 C13.2307692,6.36 12.9615385,6.16 12.7692308,5.92 L12.7692308,5.72 C12.7307692,5.72 12.7307692,5.72 12.7307692,5.68 L12.7307692,5.6 C12.6538462,5.56 12.6923077,5.44 12.6538462,5.4 C12.6153846,5.32 12.6538462,5.12 12.6153846,5 C12.5769231,4.84 12.5769231,4.76 12.5384615,4.6 C12.5,4.2 12.3846154,3.84 12.3461538,3.52 C12.3076923,3.08 12.5769231,2.72 12.7692308,2.4 C12.9230769,2.12 13.1153846,1.84 13.3846154,1.64 C13.4230769,1.36 13.6153846,1.16 13.8076923,0.88 C14,0.68 14.2692308,0.52 14.4615385,0.44 C14.7307692,0.08 15,0 15,0 L0,0 L0,12 L10.6153846,12 C11.0384615,11.72 11.4230769,11.56 12.0384615,11.24 C12.3076923,11.12 12.9230769,10.8 13.1153846,10.6 M9.80769231,9 C9.76923077,9 9.65384615,9 9.73076923,9 C9.73076923,8.92 9.92307692,8.92 10,8.84 C10.0384615,8.84 10.0769231,8.8 10.1538462,8.8 C10.1923077,8.84 10.2307692,8.84 10.3076923,8.88 C10.1153846,9 9.92307692,8.88 9.80769231,9 M6.46153846,8.44 C6.46153846,8.44 6.42307692,8.44 6.46153846,8.44 C6.73076923,8 6.92307692,7.64 7.11538462,7.24 C7.38461538,7.08 7.65384615,6.84 7.88461538,6.6 C8.26923077,6.2 8.65384615,5.8 9.11538462,5.6 C9.30769231,5.56 9.5,5.56 9.69230769,5.6 C9.65384615,5.68 9.5,5.64 9.42307692,5.76 L9.38461538,5.76 L9.38461538,5.72 C9.15384615,5.96 8.84615385,6.08 8.65384615,6.36 C8.5,6.6 8.42307692,6.92 8.11538462,6.96 C8.03846154,6.96 8.11538462,6.92 8.11538462,6.92 C7.46153846,7.36 7,7.84 6.46153846,8.44 M8.26923077,6.96 C8.26923077,7 8.23076923,7 8.23076923,7.04 C8.23076923,7.08 8.19230769,7.08 8.15384615,7.12 L8.11538462,7.12 C8.07692308,7.04 8.11538462,6.96 8.26923077,6.96 C8.26923077,6.92 8.26923077,6.96 8.26923077,6.96 M9.26923077,10.36 C9.26923077,10.4 9.23076923,10.4 9.23076923,10.4 C9.26923077,10.4 9.26923077,10.4 9.26923077,10.44 C9.23076923,10.48 9.19230769,10.52 9.11538462,10.52 C9.11538462,10.52 9.11538462,10.52 9.07692308,10.52 C9.03846154,10.56 9.03846154,10.56 9,10.6 C8.96153846,10.6 8.84615385,10.6 8.92307692,10.56 C8.96153846,10.52 9,10.48 9.07692308,10.4 C9.11538462,10.36 9.11538462,10.36 9.15384615,10.32 L9.19230769,10.28 C9.19230769,10.32 9.26923077,10.32 9.26923077,10.36 M8.88461538,10.16 L8.88461538,10.16 C8.80769231,10.2 8.69230769,10.32 8.65384615,10.36 C8.57692308,10.4 8.46153846,10.44 8.38461538,10.52 L8.38461538,10.52 C8.38461538,10.52 8.38461538,10.52 8.34615385,10.52 C8.26923077,10.56 8.19230769,10.6 8.11538462,10.72 C8.11538462,10.72 8.11538462,10.72 8.07692308,10.76 L8.07692308,10.76 L8.07692308,10.76 C8.07692308,10.76 8.07692308,10.76 8.03846154,10.8 L8.03846154,10.8 L8.03846154,10.8 L7.96153846,10.88 C7.96153846,10.88 7.96153846,10.88 7.92307692,10.92 L7.88461538,10.92 L7.88461538,10.92 L7.84615385,10.92 C7.84615385,10.92 7.84615385,10.92 7.80769231,10.92 L7.80769231,10.92 L7.80769231,10.92 C7.76923077,10.92 7.76923077,10.96 7.73076923,10.96 C7.69230769,11 7.65384615,11.04 7.57692308,11.12 L7.57692308,11.12 L7.57692308,11.12 L7.57692308,11.12 L7.57692308,11.12 L7.57692308,11.12 L7.57692308,11.12 L7.57692308,11.12 L7.57692308,11.12 L7.57692308,11.12 L7.57692308,11.12 C7.57692308,11.12 7.57692308,11.12 7.57692308,11.08 L7.57692308,11.08 L7.57692308,11.08 C7.57692308,11.04 7.61538462,11.04 7.61538462,11 L7.61538462,11 C7.61538462,11 7.61538462,11 7.61538462,10.96 L7.65384615,10.92 L7.65384615,10.92 C7.69230769,10.88 7.69230769,10.88 7.69230769,10.84 L7.69230769,10.84 L7.69230769,10.84 C7.69230769,10.84 7.69230769,10.8 7.73076923,10.8 C7.73076923,10.8 7.73076923,10.76 7.76923077,10.76 L7.76923077,10.76 L7.76923077,10.76 L7.76923077,10.76 L7.76923077,10.72 L7.76923077,10.72 L7.76923077,10.72 C7.76923077,10.72 7.76923077,10.72 7.76923077,10.68 L7.76923077,10.68 C7.76923077,10.68 7.76923077,10.68 7.76923077,10.64 L7.76923077,10.64 C7.80769231,10.6 7.80769231,10.56 7.84615385,10.56 L7.84615385,10.56 C7.80769231,10.56 7.80769231,10.6 7.76923077,10.6 C7.76923077,10.6 7.73076923,10.6 7.73076923,10.56 L7.76923077,10.52 L7.76923077,10.52 C7.80769231,10.48 7.80769231,10.44 7.84615385,10.44 C7.88461538,10.44 7.88461538,10.4 7.88461538,10.4 L7.88461538,10.4 L7.92307692,10.36 L7.92307692,10.36 C8.11538462,10.16 8.5,10.16 8.76923077,10 C8.84615385,9.96 9,10 9.11538462,10 C9.15384615,10 9.26923077,10 9.30769231,10.04 C9.23076923,9.92 9.07692308,10.08 8.88461538,10.16 M9.30769231,8.6 C9.30769231,8.6 9.34615385,8.6 9.38461538,8.56 L9.19230769,8.56 C9.19230769,8.56 9.19230769,8.56 9.19230769,8.52 C9.11538462,8.52 8.96153846,8.56 8.84615385,8.6 C8.69230769,8.64 8.57692308,8.76 8.38461538,8.8 C8.15384615,8.88 7.96153846,9.08 7.65384615,9.2 C7.65384615,9.2 7.65384615,9.2 7.65384615,9.16 C7.65384615,9.12 7.73076923,9.08 7.80769231,9 L7.80769231,8.92 C8,8.68 8.23076923,8.52 8.42307692,8.32 L8.42307692,8.28 C8.46153846,8.2 8.61538462,8.12 8.65384615,8.04 C8.65384615,8 8.73076923,7.88 8.88461538,7.84 C8.88461538,7.84 8.84615385,7.84 8.84615385,7.8 C8.76923077,7.8 8.65384615,7.84 8.57692308,7.8 C8.61538462,7.76 8.65384615,7.76 8.73076923,7.72 C8.73076923,7.72 8.69230769,7.72 8.69230769,7.68 C8.69230769,7.64 8.73076923,7.6 8.76923077,7.6 C8.84615385,7.6 8.96153846,7.6 9.03846154,7.52 C8.88461538,7.52 8.69230769,7.56 8.57692308,7.48 C8.65384615,7.2 8.84615385,6.92 9.15384615,6.8 L9.19230769,6.8 C9.19230769,6.88 9.15384615,7 9,7.04 C9.19230769,7.08 9.34615385,7.08 9.53846154,7.2 C9.53846154,7.24 9.5,7.2 9.46153846,7.2 C9.53846154,7.24 9.69230769,7.2 9.80769231,7.28 C9.76923077,7.32 9.65384615,7.28 9.61538462,7.28 C10.2692308,7.48 11,7.64 11.5769231,8.12 C11.1153846,8.36 10.5769231,8.48 10.0384615,8.6 C10,8.6 9.96153846,8.6 9.84615385,8.6 L9.84615385,8.64 C9.76923077,8.64 9.69230769,8.64 9.61538462,8.68 C9.5,8.64 9.42307692,8.68 9.30769231,8.6" id="Rouge_1_" fill="#000091"></path>
                <path d="M34,0 L20.6229721,0 C20.6229721,0 20.6229721,0 20.7055463,0.0402684564 C20.7881206,0.0805369128 20.9532691,0.201342282 21.0771304,0.241610738 C21.2422789,0.322147651 21.4487145,0.44295302 21.5312888,0.604026846 C21.5725759,0.644295302 21.613863,0.805369128 21.5725759,0.88590604 C21.5312888,0.966442953 21.5312888,1.16778523 21.3661403,1.24832215 C21.2009918,1.2885906 21.0771304,1.2885906 20.8706948,1.2885906 C20.7881206,1.2885906 20.6642592,1.2885906 20.581685,1.24832215 C20.9532691,1.40939597 21.2422789,1.53020134 21.4900017,1.85234899 C21.4900017,1.89261745 21.5725759,1.89261745 21.6964373,1.89261745 L21.6964373,1.93288591 C21.6551502,1.97315436 21.613863,1.97315436 21.6551502,2.09395973 L21.8202987,2.09395973 C21.9028729,2.05369128 21.9028729,1.81208054 22.0680214,1.89261745 C22.1505956,1.93288591 22.2331699,2.13422819 22.1505956,2.25503356 C22.0680214,2.33557047 21.94416,2.41610738 21.8615858,2.4966443 C21.8615858,2.53691275 21.8615858,2.57718121 21.8615858,2.65771812 C21.9028729,2.73825503 21.94416,2.8590604 21.94416,2.93959732 C21.9854472,3.10067114 22.0267343,3.30201342 22.1093085,3.42281879 C22.274457,3.7852349 22.3570313,4.10738255 22.3157441,4.46979866 C22.3157441,4.67114094 22.2331699,4.83221477 22.3157441,5.03355705 C22.3570313,5.23489933 22.4808926,5.31543624 22.5634669,5.51677852 C22.6460411,5.67785235 22.7699025,5.75838926 22.8111896,5.87919463 C22.9763381,6.12080537 23.2240608,6.32214765 23.1001995,6.6442953 C23.0589124,6.80536913 22.8111896,6.80536913 22.604754,6.88590604 C22.4396055,6.96644295 22.604754,7.16778523 22.6460411,7.2885906 C22.7286154,7.48993289 22.4808926,7.65100671 22.3570313,7.69127517 C22.3983184,7.73154362 22.5221798,7.73154362 22.5221798,7.77181208 C22.5221798,7.85234899 22.6873282,7.97315436 22.5634669,8.05369128 C22.4808926,8.2147651 22.1918828,8.25503356 22.3157441,8.45637584 C22.3983184,8.61744966 22.3570313,8.81879195 22.3157441,8.93959732 C22.274457,9.1409396 22.0680214,9.22147651 21.9028729,9.30201342 C21.7377244,9.34228188 21.613863,9.34228188 21.4487145,9.30201342 C21.4074274,9.30201342 21.3661403,9.26174497 21.2835661,9.26174497 C20.8706948,9.22147651 20.4578236,9.10067114 20.1275266,9.10067114 C20.0449524,9.10067114 19.8798039,9.1409396 19.8385167,9.18120805 C19.7559425,9.26174497 19.6320811,9.34228188 19.5495069,9.42281879 L19.5495069,9.42281879 L19.5082198,9.46308725 C19.5082198,9.46308725 19.5082198,9.46308725 19.4669326,9.5033557 L19.4669326,9.5033557 C19.4256455,9.58389262 19.3017841,9.66442953 19.260497,9.74496644 L19.260497,9.74496644 C19.260497,9.74496644 19.260497,9.74496644 19.260497,9.7852349 C19.1779228,9.94630872 19.0953485,10.0671141 19.0953485,10.1879195 C18.9302,10.7516779 19.0127743,11.1946309 19.0953485,11.2751678 C19.1366356,11.3154362 19.8798039,11.5167785 20.3752493,11.7583893 C20.6229721,11.8389262 20.7881206,11.9597315 20.9532691,12 L34,12 L34,0 Z" id="Bleu_1_" fill="#E1000F"></path>
                <path d="M20.043353,4.18031279 C20.1427199,4.18031279 20.3414538,4.18031279 20.3414538,4.21343146 C20.2917703,4.37902484 19.9936695,4.41214351 19.7949356,4.54461822 L19.7452521,4.54461822 C19.6955686,4.57773689 19.6955686,4.67709292 19.6458852,4.67709292 C19.5962017,4.67709292 19.4471513,4.67709292 19.3974678,4.67709292 C19.4968347,4.74333027 19.6458852,4.80956762 19.8446191,4.80956762 C19.8446191,4.80956762 19.8943025,4.84268629 19.8943025,4.87580497 C19.8943025,4.87580497 19.8943025,4.87580497 19.943986,4.87580497 L19.9936695,4.87580497 L19.9936695,4.94204232 C19.943986,5.00827967 19.7452521,4.97516099 19.6458852,4.97516099 C19.8943025,5.00827967 20.0930364,5.00827967 20.3414538,4.97516099 C20.5401877,4.94204232 20.3414538,4.74333027 20.4408207,4.64397424 C20.3911373,4.64397424 20.4408207,4.61085557 20.3911373,4.61085557 C20.4408207,4.57773689 20.4905042,4.54461822 20.5898712,4.47838086 C20.6395546,4.47838086 20.6892381,4.47838086 20.7886051,4.44526219 C20.7886051,4.41214351 20.6892381,4.41214351 20.7389216,4.37902484 C20.9376555,4.31278749 21.0370224,4.18031279 20.987339,4.08095676 C20.987339,4.04783809 20.7389216,4.04783809 20.6395546,4.01471941 C20.5401877,3.98160074 20.3414538,4.01471941 20.1427199,4.01471941 C20.043353,4.01471941 19.8446191,4.04783809 19.6955686,4.08095676 C19.3477843,4.11407544 19.1987339,4.21343146 19,4.24655014 C19.1987339,4.21343146 19.3477843,4.18031279 19.5962017,4.11407544 C19.7452521,4.18031279 19.8446191,4.11407544 20.043353,4.18031279" id="Yeux_1_" fill="#9C9B9B"></path>
                <path d="M0,28.3540773 L0,19.4613734 L2.26368515,19.4613734 L4.40822898,23.1137339 L6.55277281,19.4613734 L8.81645796,19.4613734 L8.81645796,28.3540773 L7.0293381,28.3540773 L7.0293381,22.0418455 L5.04364937,25.3369099 L3.77280859,25.3369099 L1.78711986,22.0418455 L1.78711986,28.3540773 L0,28.3540773 Z M11.4375671,28.3540773 L11.4375671,19.4613734 L13.2246869,19.4613734 L13.2246869,28.3540773 L11.4375671,28.3540773 Z M15.8457961,28.3540773 L15.8457961,19.4613734 L18.149195,19.4613734 L22.1205725,25.8133047 L22.1205725,19.4613734 L23.9076923,19.4613734 L23.9076923,28.3540773 L21.6042934,28.3540773 L17.6329159,21.9624464 L17.6329159,28.3540773 L15.8457961,28.3540773 Z M26.5685152,28.3540773 L26.5685152,19.4613734 L28.3556351,19.4613734 L28.3556351,28.3540773 L26.5685152,28.3540773 Z M30.1824687,27.1233906 L31.4930233,25.9324034 C31.7710197,26.2896996 32.0490161,26.527897 32.4064401,26.7263948 C32.763864,26.9248927 33.121288,27.0042918 33.478712,27.0042918 C33.836136,27.0042918 34.1141324,26.9248927 34.3127013,26.7263948 C34.5112701,26.527897 34.6304114,26.2896996 34.6304114,25.972103 C34.6304114,25.5751073 34.4318426,25.2575107 33.9949911,25.0590129 C33.5581395,24.860515 33.121288,24.6223176 32.6050089,24.3841202 C32.0887299,24.1459227 31.6121646,23.8283262 31.2150268,23.4313305 C30.7781753,23.0343348 30.5796064,22.4785408 30.5796064,21.7639485 C30.5796064,21.4066524 30.659034,21.0890558 30.7781753,20.7714592 C30.9370304,20.4538627 31.0958855,20.1759657 31.3738819,19.9377682 C31.6518784,19.6995708 31.9298748,19.501073 32.2872987,19.3819742 C32.6447227,19.2628755 33.0021467,19.1834764 33.4389982,19.1834764 C34.1141324,19.1834764 34.709839,19.3025751 35.2261181,19.5804721 C35.7423971,19.8583691 36.1792487,20.2156652 36.5763864,20.6523605 L35.2658318,21.8433476 C34.9878354,21.4860515 34.709839,21.2478541 34.4318426,21.0493562 C34.1538462,20.8508584 33.836136,20.7317597 33.478712,20.7317597 C33.1610018,20.7317597 32.9227191,20.8111588 32.7241503,21.0096567 C32.5255814,21.1684549 32.4461538,21.4066524 32.4461538,21.6845494 C32.4461538,22.0815451 32.6447227,22.3991416 33.0815742,22.5976395 C33.5184258,22.7961373 33.9552773,23.0343348 34.4715564,23.2725322 C34.9878354,23.5107296 35.4644007,23.8283262 35.8615385,24.2253219 C36.29839,24.6223176 36.4969589,25.1781116 36.4969589,25.9324034 C36.4969589,26.3293991 36.4175313,26.7263948 36.2586762,27.0439914 C36.0998211,27.361588 35.9012522,27.639485 35.6232558,27.8776824 C35.3452594,28.1158798 35.067263,28.2746781 34.709839,28.3937768 C34.352415,28.5128755 33.9552773,28.5922747 33.5581395,28.5922747 C32.8035778,28.5922747 32.1681574,28.473176 31.6518784,28.195279 C31.0561717,27.9570815 30.5796064,27.5997854 30.1824687,27.1233906 Z M37.4898032,21.0890558 L37.4898032,19.4613734 L44.7971377,19.4613734 L44.7971377,21.0890558 L42.0568873,21.0890558 L42.0568873,28.3540773 L40.2697674,28.3540773 L40.2697674,21.0890558 L37.4898032,21.0890558 Z M46.5048301,28.3540773 L46.5048301,19.4613734 L51.7073345,19.4613734 L51.7073345,21.0096567 L48.2919499,21.0096567 L48.2919499,23.0740343 L51.1513417,23.0740343 L51.1513417,24.582618 L48.2919499,24.582618 L48.2919499,26.805794 L51.6676208,26.805794 L51.6676208,28.3540773 L46.5048301,28.3540773 Z M48.2919499,18.7070815 L46.6636852,17 L48.5302326,17 L49.9599284,18.7070815 L48.2919499,18.7070815 Z M53.8915921,28.3540773 L53.8915921,19.4613734 L56.5921288,19.4613734 C57.5849732,19.4613734 58.3395349,19.6995708 58.8955277,20.1759657 C59.4515206,20.6523605 59.729517,21.2875536 59.729517,22.1212446 C59.729517,22.6373391 59.6103757,23.1137339 59.372093,23.5107296 C59.1338104,23.9077253 58.7763864,24.2253219 58.3395349,24.4238197 L61.1194991,28.3540773 L59.0146691,28.3540773 L56.6318426,24.7414163 L55.7184258,24.7414163 L55.7184258,28.3540773 L53.8915921,28.3540773 Z M56.7112701,21.0096567 L55.678712,21.0096567 L55.678712,23.2328326 L56.7112701,23.2328326 C57.1084079,23.2328326 57.3864043,23.1534335 57.5849732,22.9549356 C57.783542,22.7564378 57.9026834,22.4785408 57.9026834,22.1212446 C57.9026834,21.7639485 57.783542,21.5257511 57.5849732,21.3272532 C57.3864043,21.0890558 57.1084079,21.0096567 56.7112701,21.0096567 Z M62.3903399,28.3540773 L62.3903399,19.4613734 L67.5928444,19.4613734 L67.5928444,21.0096567 L64.2171735,21.0096567 L64.2171735,23.0740343 L67.0765653,23.0740343 L67.0765653,24.582618 L64.2171735,24.582618 L64.2171735,26.805794 L67.5928444,26.805794 L67.5928444,28.3540773 L62.3903399,28.3540773 Z M0,41.0579399 L0,32.1652361 L3.49481216,32.1652361 C4.20966011,32.1652361 4.8450805,32.2843348 5.44078712,32.5225322 C6.03649374,32.7607296 6.51305903,33.0783262 6.94991055,33.4753219 C7.3470483,33.8723176 7.6647585,34.3487124 7.90304114,34.9045064 C8.14132379,35.4603004 8.26046512,36.0160944 8.26046512,36.611588 C8.26046512,37.2070815 8.14132379,37.7628755 7.90304114,38.3186695 C7.6647585,38.8744635 7.3470483,39.3111588 6.94991055,39.7478541 C6.55277281,40.1448498 6.03649374,40.4624464 5.44078712,40.7006438 C4.8450805,40.9388412 4.20966011,41.0579399 3.49481216,41.0579399 L0,41.0579399 Z M3.49481216,33.7929185 L1.78711986,33.7929185 L1.78711986,39.3905579 L3.49481216,39.3905579 C3.89194991,39.3905579 4.28908766,39.3111588 4.64651163,39.1920601 C5.0039356,39.0332618 5.28193202,38.8347639 5.55992844,38.5965665 C5.79821109,38.3583691 5.99677996,38.0407725 6.15563506,37.6834764 C6.31449016,37.3261803 6.35420394,36.9688841 6.35420394,36.5718884 C6.35420394,36.1748927 6.27477639,35.8175966 6.15563506,35.4603004 C5.99677996,35.1030043 5.79821109,34.8251073 5.55992844,34.5869099 C5.3216458,34.3487124 5.0039356,34.1502146 4.64651163,33.9914163 C4.28908766,33.8723176 3.93166369,33.7929185 3.49481216,33.7929185 Z M10.0872987,41.0579399 L10.0872987,32.1652361 L15.2898032,32.1652361 L15.2898032,33.7135193 L11.9141324,33.7135193 L11.9141324,35.777897 L14.7735242,35.777897 L14.7735242,37.3261803 L11.9141324,37.3261803 L11.9141324,39.5493562 L15.2898032,39.5493562 L15.2898032,41.0976395 L10.0872987,41.0976395 L10.0872987,41.0579399 Z M16.6797853,39.8272532 L17.9903399,38.6362661 C18.2683363,38.9935622 18.5463327,39.2317597 18.9037567,39.4302575 C19.2611807,39.6287554 19.6186047,39.7081545 19.9760286,39.7081545 C20.3334526,39.7081545 20.611449,39.6287554 20.8100179,39.4302575 C21.0085868,39.2317597 21.1277281,38.9935622 21.1277281,38.6759657 C21.1277281,38.27897 20.9291592,37.9613734 20.4923077,37.7628755 C20.0554562,37.5643777 19.6186047,37.3261803 19.1023256,37.0879828 C18.5860465,36.8497854 18.1094812,36.5321888 17.7123435,36.1351931 C17.2754919,35.7381974 17.0769231,35.1824034 17.0769231,34.4678112 C17.0769231,34.110515 17.1563506,33.7929185 17.2754919,33.4753219 C17.434347,33.1577253 17.5932021,32.8798283 17.8711986,32.6416309 C18.149195,32.4034335 18.4271914,32.2049356 18.7846154,32.0858369 C19.1420394,31.9667382 19.4994633,31.8873391 19.9363148,31.8873391 C20.611449,31.8873391 21.2071556,32.0064378 21.7234347,32.2843348 C22.2397138,32.5622318 22.6765653,32.9195279 23.073703,33.3562232 L21.7631485,34.5472103 C21.4851521,34.1899142 21.2071556,33.9517167 20.9291592,33.7532189 C20.6511628,33.554721 20.3334526,33.4356223 19.9760286,33.4356223 C19.6583184,33.4356223 19.4200358,33.5150215 19.2214669,33.7135193 C19.022898,33.8723176 18.9434705,34.110515 18.9434705,34.388412 C18.9434705,34.7854077 19.1420394,35.1030043 19.5788909,35.3015021 C20.0157424,35.5 20.4525939,35.7381974 20.968873,35.9763948 C21.4851521,36.2145923 21.9617174,36.5321888 22.3588551,36.9291845 C22.7957066,37.3261803 22.9942755,37.8819742 22.9942755,38.6362661 C22.9942755,39.0332618 22.9148479,39.4302575 22.7559928,39.7478541 C22.5971377,40.0654506 22.3985689,40.3433476 22.1205725,40.5815451 C21.842576,40.8197425 21.5645796,40.9785408 21.2071556,41.0976395 C20.8497317,41.2167382 20.4525939,41.2961373 20.0554562,41.2961373 C19.3008945,41.2961373 18.6654741,41.1770386 18.149195,40.8991416 C17.5137746,40.6609442 17.0769231,40.3036481 16.6797853,39.8272532 Z M27.6010733,39.8272532 L28.9116279,38.6362661 C29.1896243,38.9935622 29.4676208,39.2317597 29.8250447,39.4302575 C30.1824687,39.6287554 30.5398927,39.7081545 30.8973166,39.7081545 C31.2547406,39.7081545 31.532737,39.6287554 31.7313059,39.4302575 C31.9298748,39.2317597 32.0490161,38.9935622 32.0490161,38.6759657 C32.0490161,38.27897 31.8504472,37.9613734 31.4135957,37.7628755 C30.9767442,37.5643777 30.5398927,37.3261803 30.0236136,37.0879828 C29.5073345,36.8497854 29.0307692,36.5321888 28.6336315,36.1351931 C28.19678,35.7381974 27.9982111,35.1824034 27.9982111,34.4678112 C27.9982111,34.110515 28.0776386,33.7929185 28.19678,33.4753219 C28.3556351,33.1577253 28.5144902,32.8798283 28.7924866,32.6416309 C29.070483,32.4034335 29.3484794,32.2049356 29.7059034,32.0858369 C30.0633274,31.9667382 30.4207513,31.8873391 30.8576029,31.8873391 C31.532737,31.8873391 32.1284436,32.0064378 32.6447227,32.2843348 C33.1610018,32.5622318 33.5978533,32.9195279 33.9949911,33.3562232 L32.6844365,34.5472103 C32.4064401,34.1899142 32.1284436,33.9517167 31.8504472,33.7532189 C31.5724508,33.554721 31.2547406,33.4356223 30.8973166,33.4356223 C30.5796064,33.4356223 30.3413238,33.5150215 30.1427549,33.7135193 C29.944186,33.8723176 29.8647585,34.110515 29.8647585,34.388412 C29.8647585,34.7854077 30.0633274,35.1030043 30.5001789,35.3015021 C30.9370304,35.5 31.3738819,35.7381974 31.890161,35.9763948 C32.4064401,36.2145923 32.8830054,36.5321888 33.2801431,36.9291845 C33.7169946,37.3261803 33.9155635,37.8819742 33.9155635,38.6362661 C33.9155635,39.0332618 33.836136,39.4302575 33.6772809,39.7478541 C33.5184258,40.0654506 33.3198569,40.3433476 33.0418605,40.5815451 C32.763864,40.8197425 32.4858676,40.9785408 32.1284436,41.0976395 C31.7710197,41.2167382 31.3738819,41.2961373 30.9767442,41.2961373 C30.2221825,41.2961373 29.5867621,41.1770386 29.070483,40.8991416 C28.4350626,40.6609442 27.9584973,40.3036481 27.6010733,39.8272532 Z M39.7137746,31.8873391 C40.3889088,31.8873391 41.0640429,32.0064378 41.6200358,32.2843348 C42.1760286,32.5622318 42.6923077,32.8798283 43.1291592,33.3165236 C43.526297,33.7532189 43.8837209,34.2296137 44.0822898,34.8251073 C44.3205725,35.3809013 44.4397138,36.0160944 44.4397138,36.6512876 C44.4397138,37.2864807 44.3205725,37.8819742 44.0822898,38.4774678 C43.8440072,39.0332618 43.526297,39.5493562 43.1291592,39.9860515 C42.7320215,40.4227468 42.2157424,40.7403433 41.6200358,41.0182403 C41.0243292,41.2564378 40.3889088,41.4152361 39.7137746,41.4152361 C38.9989267,41.4152361 38.3635063,41.2961373 37.8075134,41.0182403 C37.2118068,40.7800429 36.7352415,40.4227468 36.29839,39.9860515 C35.8615385,39.5493562 35.5438283,39.0729614 35.3452594,38.4774678 C35.1069767,37.9216738 34.9878354,37.2864807 34.9878354,36.6512876 C34.9878354,36.0160944 35.1069767,35.4206009 35.3452594,34.8251073 C35.583542,34.2693133 35.9012522,33.7532189 36.29839,33.3165236 C36.6955277,32.8798283 37.2118068,32.5622318 37.8075134,32.2843348 C38.3635063,32.0461373 38.9989267,31.8873391 39.7137746,31.8873391 Z M39.7137746,39.6287554 C40.1109123,39.6287554 40.5080501,39.5493562 40.8654741,39.3905579 C41.222898,39.2317597 41.5008945,39.0332618 41.7788909,38.7553648 C42.0171735,38.4774678 42.2157424,38.1598712 42.3745975,37.8025751 C42.5334526,37.445279 42.5731664,37.0482833 42.5731664,36.611588 C42.5731664,36.1748927 42.4937388,35.777897 42.3745975,35.4206009 C42.2157424,35.0633047 42.0171735,34.7457082 41.7788909,34.4678112 C41.5406082,34.1899142 41.222898,33.9914163 40.8654741,33.832618 C40.5080501,33.6738197 40.1109123,33.5944206 39.7137746,33.5944206 C39.3166369,33.5944206 38.9194991,33.6738197 38.5620751,33.832618 C38.2046512,33.9914163 37.886941,34.1899142 37.6486583,34.4678112 C37.4103757,34.7457082 37.2118068,35.0633047 37.0529517,35.4206009 C36.8940966,35.777897 36.8543828,36.1748927 36.8543828,36.611588 C36.8543828,37.0482833 36.9338104,37.445279 37.0529517,37.8025751 C37.2118068,38.1598712 37.4103757,38.4774678 37.6486583,38.7553648 C37.886941,39.0332618 38.2046512,39.2317597 38.5620751,39.3905579 C38.9194991,39.5493562 39.2769231,39.6287554 39.7137746,39.6287554 Z M46.2665474,41.0579399 L46.2665474,32.1652361 L48.0536673,32.1652361 L48.0536673,39.4302575 L51.4293381,39.4302575 L51.4293381,41.0579399 L46.2665474,41.0579399 L46.2665474,41.0579399 Z M53.1767442,41.0579399 L53.1767442,32.1652361 L54.963864,32.1652361 L54.963864,41.0579399 L53.1767442,41.0579399 Z M57.5849732,41.0579399 L57.5849732,32.1652361 L61.0797853,32.1652361 C61.7946333,32.1652361 62.4300537,32.2843348 63.0257603,32.5225322 C63.6214669,32.7607296 64.0980322,33.0783262 64.5348837,33.4753219 C64.9320215,33.8723176 65.2497317,34.3487124 65.4880143,34.9045064 C65.726297,35.4603004 65.8454383,36.0160944 65.8454383,36.611588 C65.8454383,37.2070815 65.726297,37.7628755 65.4880143,38.3186695 C65.2497317,38.8744635 64.9320215,39.3111588 64.5348837,39.7478541 C64.137746,40.1448498 63.6214669,40.4624464 63.0257603,40.7006438 C62.4300537,40.9388412 61.7946333,41.0579399 61.0797853,41.0579399 L57.5849732,41.0579399 Z M61.1194991,33.7929185 L59.4118068,33.7929185 L59.4118068,39.3905579 L61.1194991,39.3905579 C61.5166369,39.3905579 61.9137746,39.3111588 62.2711986,39.1920601 C62.6286225,39.0332618 62.906619,38.8347639 63.1846154,38.5965665 C63.422898,38.3583691 63.6214669,38.0407725 63.780322,37.6834764 C63.9391771,37.3261803 63.9788909,36.9688841 63.9788909,36.5718884 C63.9788909,36.1748927 63.8994633,35.8175966 63.780322,35.4603004 C63.6214669,35.1030043 63.422898,34.8251073 63.1846154,34.5869099 C62.9463327,34.3487124 62.6286225,34.1502146 62.2711986,33.9914163 C61.9137746,33.8723176 61.5166369,33.7929185 61.1194991,33.7929185 Z M66.3617174,41.0579399 L69.7373882,32.1652361 L72.1202147,32.1652361 L75.4958855,41.0579399 L73.5896243,41.0579399 L72.7556351,38.7553648 L69.1813953,38.7553648 L68.3474061,41.0579399 L66.3617174,41.0579399 Z M69.6976744,37.2070815 L72.1202147,37.2070815 L70.8890877,33.8723176 L69.6976744,37.2070815 Z M76.9652952,41.0579399 L76.9652952,32.1652361 L79.6658318,32.1652361 C80.6586762,32.1652361 81.4132379,32.4034335 81.9692308,32.8798283 C82.5252236,33.3562232 82.80322,33.9914163 82.80322,34.8251073 C82.80322,35.3412017 82.6840787,35.8175966 82.4457961,36.2145923 C82.2075134,36.611588 81.8500894,36.9291845 81.4132379,37.1276824 L84.1932021,41.0579399 L82.0486583,41.0579399 L79.6658318,37.445279 L78.752415,37.445279 L78.752415,41.0579399 L76.9652952,41.0579399 Z M79.7849732,33.7135193 L78.752415,33.7135193 L78.752415,35.9366953 L79.7849732,35.9366953 C80.1821109,35.9366953 80.4601073,35.8572961 80.6586762,35.6587983 C80.8572451,35.4603004 80.9763864,35.1824034 80.9763864,34.8251073 C80.9763864,34.4678112 80.8572451,34.2296137 80.6586762,34.0311159 C80.4601073,33.7929185 80.1821109,33.7135193 79.7849732,33.7135193 Z M85.4640429,41.0579399 L85.4640429,32.1652361 L87.2511628,32.1652361 L87.2511628,41.0579399 L85.4640429,41.0579399 Z M88.9588551,33.7929185 L88.9588551,32.1652361 L96.2661896,32.1652361 L96.2661896,33.7929185 L93.5259392,33.7929185 L93.5259392,41.0579399 L91.7388193,41.0579399 L91.7388193,33.7929185 L88.9588551,33.7929185 Z M97.9738819,41.0579399 L97.9738819,32.1652361 L103.176386,32.1652361 L103.176386,33.7135193 L99.8007156,33.7135193 L99.8007156,35.777897 L102.660107,35.777897 L102.660107,37.3261803 L99.8007156,37.3261803 L99.8007156,39.5493562 L103.176386,39.5493562 L103.176386,41.0976395 L97.9738819,41.0976395 L97.9738819,41.0579399 Z M101.389267,31.4109442 L99.7610018,31.4109442 L101.190698,29.7038627 L103.057245,29.7038627 L101.389267,31.4109442 Z M104.606082,39.8272532 L105.916637,38.6362661 C106.194633,38.9935622 106.47263,39.2317597 106.830054,39.4302575 C107.187478,39.6287554 107.544902,39.7081545 107.902326,39.7081545 C108.25975,39.7081545 108.537746,39.6287554 108.736315,39.4302575 C108.934884,39.2317597 109.054025,38.9935622 109.054025,38.6759657 C109.054025,38.27897 108.855456,37.9613734 108.418605,37.7628755 C107.981753,37.5643777 107.544902,37.3261803 107.028623,37.0879828 C106.512343,36.8497854 106.035778,36.5321888 105.63864,36.1351931 C105.201789,35.7381974 105.00322,35.1824034 105.00322,34.4678112 C105.00322,34.110515 105.082648,33.7929185 105.201789,33.4753219 C105.360644,33.1577253 105.519499,32.8798283 105.797496,32.6416309 C106.075492,32.4034335 106.353488,32.2049356 106.710912,32.0858369 C107.068336,31.9667382 107.42576,31.8873391 107.862612,31.8873391 C108.537746,31.8873391 109.133453,32.0064378 109.649732,32.2843348 C110.166011,32.5622318 110.602862,32.9195279 111,33.3562232 L109.689445,34.5472103 C109.411449,34.1899142 109.133453,33.9517167 108.855456,33.7532189 C108.57746,33.554721 108.25975,33.4356223 107.902326,33.4356223 C107.584615,33.4356223 107.346333,33.5150215 107.147764,33.7135193 C106.949195,33.8723176 106.869767,34.110515 106.869767,34.388412 C106.869767,34.7854077 107.068336,35.1030043 107.505188,35.3015021 C107.942039,35.5 108.378891,35.7381974 108.89517,35.9763948 C109.411449,36.2145923 109.888014,36.5321888 110.285152,36.9291845 C110.722004,37.3261803 110.920572,37.8819742 110.920572,38.6362661 C110.920572,39.0332618 110.841145,39.4302575 110.68229,39.7478541 C110.523435,40.0654506 110.324866,40.3433476 110.046869,40.5815451 C109.768873,40.8197425 109.490877,40.9785408 109.133453,41.0976395 C108.776029,41.2167382 108.378891,41.2961373 107.981753,41.2961373 C107.227191,41.2961373 106.591771,41.1770386 106.075492,40.8991416 C105.440072,40.6609442 105.00322,40.3036481 104.606082,39.8272532 Z M0,53.7618026 L0,44.8690987 L5.20250447,44.8690987 L5.20250447,46.417382 L1.82683363,46.417382 L1.82683363,48.4817597 L4.6862254,48.4817597 L4.6862254,50.0300429 L1.82683363,50.0300429 L1.82683363,52.2532189 L5.20250447,52.2532189 L5.20250447,53.8015021 L0,53.8015021 L0,53.7618026 Z M6.67191413,46.4967811 L6.67191413,44.8690987 L13.9792487,44.8690987 L13.9792487,46.4967811 L11.2389982,46.4967811 L11.2389982,53.7618026 L9.45187835,53.7618026 L9.45187835,46.4967811 L6.67191413,46.4967811 Z M19.1023256,53.7618026 L19.1023256,44.8690987 L22.5971377,44.8690987 C23.3119857,44.8690987 23.9474061,44.9881974 24.5431127,45.2263948 C25.1388193,45.4645923 25.6153846,45.7821888 26.0522361,46.1791845 C26.4493739,46.5761803 26.7670841,47.0525751 27.0053667,47.6083691 C27.2436494,48.1641631 27.3627907,48.7199571 27.3627907,49.3154506 C27.3627907,49.9109442 27.2436494,50.4667382 27.0053667,51.0225322 C26.7670841,51.5783262 26.4493739,52.0150215 26.0522361,52.4517167 C25.6550984,52.8487124 25.1388193,53.166309 24.5431127,53.4045064 C23.9474061,53.6427039 23.3119857,53.7618026 22.5971377,53.7618026 L19.1023256,53.7618026 L19.1023256,53.7618026 Z M22.6368515,46.4967811 L20.9291592,46.4967811 L20.9291592,52.0944206 L22.6368515,52.0944206 C23.0339893,52.0944206 23.431127,52.0150215 23.788551,51.8959227 C24.145975,51.7371245 24.4239714,51.5386266 24.7019678,51.3004292 C24.9402504,51.0622318 25.1388193,50.7446352 25.2976744,50.3873391 C25.4565295,50.0300429 25.4962433,49.6727468 25.4962433,49.2757511 C25.4962433,48.8787554 25.4168157,48.5214592 25.2976744,48.1641631 C25.1388193,47.806867 24.9402504,47.52897 24.7019678,47.2907725 C24.4636852,47.0525751 24.145975,46.8540773 23.788551,46.695279 C23.431127,46.5761803 23.0339893,46.4967811 22.6368515,46.4967811 Z M29.1896243,53.7618026 L29.1896243,44.8690987 L34.3921288,44.8690987 L34.3921288,46.417382 L31.016458,46.417382 L31.016458,48.4817597 L33.8758497,48.4817597 L33.8758497,50.0300429 L31.016458,50.0300429 L31.016458,52.2532189 L34.3921288,52.2532189 L34.3921288,53.8015021 L29.1896243,53.8015021 L29.1896243,53.7618026 Z M40.0314848,53.7618026 L40.0314848,44.8690987 L41.8186047,44.8690987 L41.8186047,52.1341202 L45.1942755,52.1341202 L45.1942755,53.7618026 L40.0314848,53.7618026 Z M46.1871199,53.7618026 L49.5627907,44.8690987 L51.9456172,44.8690987 L55.321288,53.7618026 L53.4150268,53.7618026 L52.5810376,51.4592275 L49.0067979,51.4592275 L48.1728086,53.7618026 L46.1871199,53.7618026 Z M49.5230769,49.9109442 L51.9456172,49.9109442 L50.7144902,46.5761803 L49.5230769,49.9109442 Z M59.4118068,52.5311159 L60.7223614,51.3401288 C61.0003578,51.6974249 61.2783542,51.9356223 61.6357782,52.1341202 C61.9932021,52.332618 62.3506261,52.4120172 62.7080501,52.4120172 C63.0654741,52.4120172 63.3434705,52.332618 63.5420394,52.1341202 C63.7406082,51.9356223 63.8597496,51.6974249 63.8597496,51.3798283 C63.8597496,50.9828326 63.6611807,50.6652361 63.2243292,50.4667382 C62.7874776,50.2682403 62.3506261,50.0300429 61.834347,49.7918455 C61.318068,49.5536481 60.8415027,49.2360515 60.4443649,48.8390558 C60.0075134,48.4420601 59.8089445,47.8862661 59.8089445,47.1716738 C59.8089445,46.8143777 59.8883721,46.4967811 60.0075134,46.1791845 C60.1663685,45.861588 60.3252236,45.583691 60.60322,45.3454936 C60.8812165,45.1072961 61.1592129,44.9087983 61.5166369,44.7896996 C61.8740608,44.6706009 62.2314848,44.5912017 62.6683363,44.5912017 C63.3434705,44.5912017 63.9391771,44.7103004 64.4554562,44.9881974 C64.9717352,45.2660944 65.4085868,45.6233906 65.8057245,46.0600858 L64.4951699,47.251073 C64.2171735,46.8937768 63.9391771,46.6555794 63.6611807,46.4570815 C63.3831843,46.2585837 63.0654741,46.139485 62.7080501,46.139485 C62.3903399,46.139485 62.1520572,46.2188841 61.9534884,46.417382 C61.7549195,46.5761803 61.6754919,46.8143777 61.6754919,47.0922747 C61.6754919,47.4892704 61.8740608,47.806867 62.3109123,48.0053648 C62.7477639,48.2038627 63.1846154,48.4420601 63.7008945,48.6802575 C64.2171735,48.9184549 64.6937388,49.2360515 65.0908766,49.6330472 C65.5277281,50.0300429 65.726297,50.5858369 65.726297,51.3401288 C65.726297,51.7371245 65.6468694,52.1341202 65.4880143,52.4517167 C65.3291592,52.7693133 65.1305903,53.0472103 64.8525939,53.2854077 C64.5745975,53.5236052 64.2966011,53.6824034 63.9391771,53.8015021 C63.5817531,53.9206009 63.1846154,54 62.7874776,54 C62.0329159,54 61.3974955,53.8809013 60.8812165,53.6030043 C60.2855098,53.3648069 59.8089445,53.0075107 59.4118068,52.5311159 Z M66.5205725,53.7618026 L69.8962433,44.8690987 L72.2790698,44.8690987 L75.6547406,53.7618026 L73.7087657,53.7618026 L72.8747764,51.4592275 L69.3005367,51.4592275 L68.4665474,53.7618026 L66.5205725,53.7618026 Z M69.8565295,49.9109442 L72.2790698,49.9109442 L71.0479428,46.5761803 L69.8565295,49.9109442 Z M77.1241503,53.7618026 L77.1241503,44.8690987 L79.4275492,44.8690987 L83.3989267,51.22103 L83.3989267,44.8690987 L85.1860465,44.8690987 L85.1860465,53.7618026 L82.8826476,53.7618026 L78.9112701,47.3701717 L78.9112701,53.7618026 L77.1241503,53.7618026 Z M86.9334526,46.4967811 L86.9334526,44.8690987 L94.2407871,44.8690987 L94.2407871,46.4967811 L91.5005367,46.4967811 L91.5005367,53.7618026 L89.7134168,53.7618026 L89.7134168,46.4967811 L86.9334526,46.4967811 Z M95.9484794,53.7618026 L95.9484794,44.8690987 L101.11127,44.8690987 L101.11127,46.417382 L97.7355993,46.417382 L97.7355993,48.4817597 L100.594991,48.4817597 L100.594991,50.0300429 L97.7355993,50.0300429 L97.7355993,52.2532189 L101.11127,52.2532189 L101.11127,53.8015021 L95.9484794,53.8015021 L95.9484794,53.7618026 Z M99.3241503,44.1148069 L97.6958855,44.1148069 L99.1255814,42.4077253 L100.992129,42.4077253 L99.3241503,44.1148069 Z" id="Shape" fill="#000000"></path>
            </g>
        </g>
    </g>
</svg>